<?xml version="1.0" standalone="no"?>
<!DOCTYPE svg PUBLIC "-//W3C//DTD SVG 20010904//EN"
 "http://www.w3.org/TR/2001/REC-SVG-20010904/DTD/svg10.dtd">
<svg version="1.0" xmlns="http://www.w3.org/2000/svg"
 width="1618.000000pt" height="1618.000000pt" viewBox="0 0 1618.000000 1618.000000"
 preserveAspectRatio="xMidYMid meet">
<metadata>
Created by potrace 1.11, written by Peter Selinger 2001-2013
</metadata>
<g transform="translate(0.000000,1618.000000) scale(0.100000,-0.100000)"
fill="#000000" stroke="none">
<path d="M5316 13638 c3 -4 -2 -8 -10 -8 -8 0 -22 -9 -30 -21 -9 -13 -19 -18
-27 -13 -9 5 -10 2 -6 -10 5 -12 2 -16 -11 -14 -9 2 -16 -3 -14 -9 1 -7 -3
-13 -9 -13 -6 0 -9 -7 -6 -15 4 -8 1 -17 -5 -21 -7 -5 -8 -2 -3 6 5 9 4 11 -3
6 -7 -4 -12 -14 -12 -22 0 -8 -6 -13 -12 -11 -8 1 -12 -6 -10 -17 2 -10 -1
-15 -6 -12 -5 3 -15 -1 -21 -8 -8 -10 -9 -16 -1 -21 12 -8 4 -25 -13 -25 -7 0
-6 4 3 11 13 9 13 10 0 6 -8 -2 -14 -12 -12 -21 2 -9 -4 -19 -12 -22 -9 -3
-14 -10 -11 -14 3 -5 -2 -13 -11 -18 -12 -6 -15 -16 -10 -28 4 -10 4 -15 0
-12 -3 4 -14 -3 -24 -15 -14 -16 -16 -27 -8 -41 7 -13 7 -16 -1 -12 -6 4 -11
2 -11 -4 0 -6 -4 -8 -10 -5 -6 3 -7 -1 -4 -9 3 -9 1 -16 -6 -16 -6 0 -9 -4 -6
-8 2 -4 -4 -14 -16 -21 -11 -7 -17 -8 -13 -2 3 6 0 11 -7 11 -9 0 -9 3 2 10
12 8 12 10 1 10 -8 0 -11 7 -8 20 3 11 1 18 -3 15 -5 -3 -11 -1 -15 5 -3 5 -1
10 5 10 7 0 5 7 -4 16 -19 19 -21 28 -3 18 6 -4 4 2 -5 13 -20 22 -24 38 -6
27 7 -5 8 -3 4 5 -5 7 -15 10 -25 7 -13 -5 -13 -4 2 8 12 9 14 15 6 18 -7 2
-14 11 -15 19 -15 75 -43 140 -58 132 -6 -4 -5 1 2 10 12 13 10 18 -7 29 -12
7 -21 21 -21 30 0 10 -5 18 -11 18 -5 0 -8 4 -5 9 9 14 -19 7 -38 -9 -10 -7
-14 -20 -11 -28 4 -12 3 -12 -9 -3 -11 9 -16 9 -22 0 -5 -8 -3 -10 7 -5 8 4 3
-1 -10 -12 -15 -12 -21 -24 -16 -32 6 -10 4 -12 -9 -7 -10 4 -15 3 -11 -3 3
-5 -5 -16 -19 -25 -14 -10 -23 -22 -19 -31 3 -8 0 -14 -7 -14 -6 0 -8 -5 -4
-11 4 -8 -1 -9 -17 -5 -13 3 -18 3 -11 0 6 -3 12 -10 12 -15 0 -6 -4 -7 -10
-4 -9 6 -14 -8 -11 -28 1 -5 -4 -5 -10 -1 -9 5 -10 2 -5 -11 6 -16 4 -16 -11
-4 -11 9 -14 10 -9 2 4 -8 2 -13 -4 -13 -6 0 -8 -5 -5 -10 3 -6 -4 -14 -17
-19 -13 -6 -17 -10 -10 -10 7 -1 1 -13 -15 -27 -15 -15 -21 -23 -13 -18 9 5 7
1 -3 -8 -11 -10 -23 -16 -28 -13 -4 3 -6 -3 -4 -14 5 -28 -31 -58 -53 -44 -9
6 -16 16 -15 22 2 6 -3 11 -11 11 -10 0 -13 7 -11 21 4 18 2 19 -12 7 -12 -9
-15 -9 -9 0 4 6 2 12 -3 12 -6 0 -11 7 -11 16 0 8 -4 12 -10 9 -9 -6 -14 8
-11 28 0 4 -4 7 -10 7 -5 0 -7 5 -4 10 3 6 -1 10 -9 10 -9 0 -16 5 -16 11 0 5
-4 7 -10 4 -6 -4 -7 1 -3 11 5 13 3 16 -10 11 -11 -4 -14 -2 -10 9 4 10 0 12
-11 8 -12 -5 -15 -2 -9 12 5 14 3 16 -12 10 -11 -4 -16 -4 -12 0 4 4 -1 13
-11 21 -9 8 -11 11 -3 7 10 -5 12 -3 7 5 -5 7 -14 10 -22 7 -8 -3 -13 0 -11 7
1 7 -3 11 -10 10 -7 -2 -17 7 -23 20 -11 21 -10 21 4 3 9 -11 16 -15 16 -10 0
16 -22 34 -42 34 -10 0 -20 10 -24 24 -4 16 -11 23 -20 19 -10 -4 -12 0 -8 12
6 15 4 16 -17 5 -23 -13 -23 -12 -9 5 14 17 13 18 -7 13 -15 -4 -20 -2 -17 7
3 7 0 16 -7 21 -8 5 -10 3 -4 -7 8 -12 6 -12 -8 0 -13 10 -17 10 -17 1 0 -10
-3 -10 -16 0 -13 12 -14 10 -3 -14 11 -23 10 -29 -2 -37 -11 -7 -11 -9 4 -9
10 0 15 -5 12 -10 -4 -6 -11 -8 -16 -5 -5 3 -6 -1 -3 -9 3 -9 11 -13 18 -10 6
3 2 -2 -8 -10 -20 -16 -20 -16 0 -16 10 0 15 -4 9 -8 -15 -11 -17 -30 -6 -68
8 -28 7 -36 -5 -41 -7 -3 -11 -9 -8 -14 3 -5 11 -7 17 -3 7 3 3 -2 -7 -10 -20
-16 -20 -16 0 -16 10 0 15 -4 9 -8 -11 -8 -16 -25 -19 -59 -1 -16 -5 -19 -17
-12 -9 4 -19 5 -23 1 -4 -3 -4 1 0 11 5 13 2 16 -12 10 -12 -4 -15 -3 -10 5 5
8 -1 12 -18 12 -16 0 -27 7 -31 21 -5 16 -10 18 -21 8 -8 -6 -14 -7 -14 -2 0
8 -21 12 -77 14 -14 1 -20 6 -16 13 3 6 1 6 -8 -1 -14 -14 -33 -18 -25 -5 2 4
-4 8 -14 8 -10 0 -17 -4 -14 -8 2 -4 -8 -6 -23 -5 -16 2 -34 -3 -42 -11 -11
-11 -16 -11 -23 0 -8 10 -11 10 -15 0 -2 -6 -9 -10 -14 -6 -5 3 -9 0 -9 -7 0
-8 -5 -7 -17 2 -14 12 -16 12 -8 0 6 -11 3 -13 -13 -9 -12 4 -28 -1 -41 -13
-14 -13 -21 -15 -24 -6 -4 9 -6 9 -6 -1 -1 -7 -5 -10 -11 -7 -5 3 -10 1 -10
-5 0 -6 -4 -9 -9 -6 -4 3 -15 -2 -24 -12 -13 -15 -13 -19 -1 -30 8 -7 14 -9
15 -5 0 4 4 -2 9 -14 6 -15 15 -21 25 -17 8 3 15 1 15 -5 0 -6 3 -10 8 -9 4 2
7 0 7 -4 0 -14 40 -37 65 -38 14 0 20 -3 14 -8 -9 -5 -8 -10 2 -20 7 -7 16
-12 19 -12 25 1 27 -1 15 -15 -11 -13 -10 -14 5 -9 13 5 16 4 11 -4 -4 -7 -1
-12 9 -12 11 0 15 -5 12 -14 -4 -10 1 -12 16 -9 18 4 19 3 7 -6 -11 -8 -12
-11 -2 -11 7 0 10 -4 7 -10 -3 -5 1 -10 9 -10 14 0 20 -12 17 -32 0 -5 9 -8
20 -8 18 0 19 -2 9 -15 -10 -12 -10 -15 0 -15 7 0 10 -7 6 -16 -6 -15 -4 -15
11 -3 9 8 14 9 10 3 -4 -7 3 -25 15 -40 15 -19 17 -24 5 -15 -15 12 -17 12
-11 -3 3 -9 10 -16 16 -16 5 0 6 -4 3 -10 -3 -5 0 -10 7 -10 9 0 9 -3 -2 -10
-10 -6 -11 -10 -2 -10 6 0 12 -9 12 -20 0 -11 5 -20 11 -20 8 0 8 -4 0 -14 -9
-11 -9 -16 0 -22 8 -4 9 -3 5 4 -5 8 -1 10 9 5 9 -3 13 -9 8 -12 -18 -12 -22
-41 -8 -54 10 -11 11 -17 2 -26 -9 -9 -9 -14 1 -20 16 -9 23 -71 9 -71 -5 0
-4 -7 3 -16 11 -12 11 -15 0 -12 -7 2 -15 -3 -18 -11 -3 -9 0 -11 9 -6 8 5 6
-1 -4 -12 -13 -15 -15 -23 -7 -28 8 -5 6 -14 -5 -32 -10 -14 -12 -23 -7 -19 6
4 10 -2 9 -14 -1 -11 -6 -19 -12 -16 -7 2 -12 -2 -12 -10 0 -7 4 -11 9 -8 4 3
8 1 8 -4 0 -6 -7 -13 -16 -16 -10 -4 -13 -13 -9 -26 3 -11 2 -20 -4 -20 -5 0
-12 -14 -16 -30 -4 -17 -11 -28 -16 -24 -5 3 -9 1 -9 -4 0 -6 -10 -8 -22 -4
-16 4 -19 2 -13 -9 7 -11 5 -11 -10 1 -11 9 -16 10 -11 3 7 -13 -4 -17 -31
-14 -8 1 -10 -5 -6 -16 5 -16 4 -16 -9 1 -10 13 -17 15 -22 8 -4 -6 -14 -8
-24 -5 -14 5 -13 2 3 -11 11 -10 14 -15 7 -11 -7 4 -20 1 -29 -7 -12 -9 -15
-9 -9 0 5 8 0 12 -13 12 -13 0 -21 -7 -21 -17 0 -15 -2 -16 -10 -3 -8 12 -14
11 -41 -9 -24 -18 -34 -21 -37 -11 -3 9 -9 5 -19 -11 -8 -13 -12 -16 -9 -6 3
9 1 17 -4 17 -6 0 -10 -5 -10 -11 0 -5 -5 -7 -12 -3 -8 5 -9 2 -5 -10 6 -14 3
-15 -13 -6 -19 10 -25 4 -21 -23 1 -4 -8 -3 -19 3 -13 7 -20 7 -20 0 0 -5 -5
-10 -11 -10 -5 0 -7 6 -4 13 4 6 0 4 -8 -5 -8 -10 -17 -15 -20 -11 -4 3 -7 2
-7 -4 0 -6 -9 -9 -22 -5 -16 4 -19 2 -13 -9 7 -11 5 -11 -10 1 -15 12 -17 12
-10 1 6 -11 4 -13 -9 -8 -9 4 -15 3 -12 -2 7 -11 -22 -23 -35 -15 -5 3 -12 -2
-15 -11 -6 -13 -8 -14 -15 -3 -7 10 -9 9 -9 -4 0 -21 -16 -32 -26 -17 -5 8 -3
9 6 4 9 -6 11 -4 5 5 -6 10 -11 9 -21 -4 -7 -10 -18 -15 -24 -11 -6 3 -10 3
-9 -2 3 -20 -2 -27 -11 -13 -8 13 -10 12 -10 -3 0 -10 -5 -15 -10 -12 -6 3
-13 -1 -16 -10 -6 -13 -8 -14 -15 -3 -6 9 -9 10 -9 1 0 -7 -7 -10 -15 -7 -8 4
-15 1 -15 -6 0 -6 -4 -8 -10 -5 -5 3 -10 -2 -10 -12 0 -15 -2 -16 -10 -3 -8
12 -10 12 -15 -2 -4 -10 -13 -14 -22 -11 -12 5 -14 3 -8 -8 7 -11 5 -11 -10 1
-10 8 -16 11 -13 5 3 -5 0 -16 -8 -23 -9 -8 -14 -9 -14 -2 0 6 -5 8 -10 5 -6
-4 -8 -10 -5 -15 3 -5 -4 -7 -16 -5 -18 4 -19 2 -7 -12 12 -15 11 -15 -9 -5
-17 10 -22 9 -27 -4 -4 -10 -13 -14 -22 -10 -10 4 -13 2 -8 -6 5 -8 2 -9 -11
-4 -14 5 -15 4 -7 -7 8 -10 6 -13 -8 -13 -10 0 -16 5 -14 11 3 5 -1 2 -9 -7
-8 -10 -18 -14 -22 -10 -5 4 -6 0 -3 -8 4 -11 -2 -16 -20 -18 -14 -1 -31 -7
-37 -14 -7 -8 -6 -9 5 -3 9 5 12 4 7 -1 -5 -5 -17 -10 -28 -10 -34 -3 -37 -4
-42 -24 -3 -11 -11 -20 -19 -20 -10 0 -9 3 2 10 8 5 10 10 4 10 -16 0 -35 -25
-27 -34 4 -4 0 -4 -10 0 -10 3 -17 1 -17 -6 0 -6 -4 -8 -10 -5 -5 3 -10 -1
-10 -9 0 -9 -5 -16 -11 -16 -5 0 -7 6 -3 13 4 6 -2 4 -13 -6 -11 -9 -23 -14
-28 -10 -4 5 -5 2 -1 -4 4 -7 2 -13 -4 -13 -7 0 -10 -7 -6 -17 6 -17 5 -17 -7
-1 -12 15 -15 14 -32 -7 -15 -16 -23 -20 -33 -12 -9 7 -11 6 -6 -7 5 -12 0
-19 -15 -23 -11 -3 -18 -9 -16 -14 3 -4 -7 -6 -22 -3 -21 3 -24 2 -13 -6 14
-9 13 -11 -10 -14 -6 0 -15 -8 -20 -16 -5 -8 -10 -11 -10 -7 0 11 -65 -43 -65
-54 0 -4 -4 -11 -9 -16 -5 -5 -6 -3 -2 5 11 18 -1 15 -23 -7 -11 -11 -16 -23
-13 -27 4 -5 -1 -2 -10 5 -15 12 -18 11 -18 -3 0 -9 -6 -15 -13 -13 -6 1 -11
-6 -11 -15 1 -15 -2 -16 -20 -6 -19 10 -20 10 -8 -5 12 -14 11 -16 -7 -12 -12
2 -19 0 -16 -5 3 -6 1 -18 -4 -27 -6 -11 -11 -13 -11 -5 0 7 -5 10 -10 7 -6
-4 -7 -12 -3 -18 4 -8 1 -7 -9 1 -13 10 -18 10 -24 1 -5 -8 -3 -10 7 -5 8 4 6
1 -5 -8 -10 -8 -15 -19 -12 -24 3 -5 -6 -8 -19 -6 -14 1 -24 -1 -22 -4 4 -7
-27 -40 -40 -44 -5 -2 -7 -7 -5 -11 1 -5 -2 -6 -8 -2 -5 3 -13 -1 -16 -9 -3
-9 -11 -13 -18 -9 -6 4 -5 0 2 -9 11 -14 10 -16 -5 -14 -10 2 -30 -10 -44 -25
-14 -16 -29 -26 -34 -21 -4 4 -5 -3 -2 -16 3 -12 1 -19 -4 -16 -5 3 -12 -2
-15 -10 -3 -9 -15 -16 -26 -16 -10 0 -17 -4 -13 -9 6 -11 -29 -34 -38 -25 -3
3 -4 -3 -3 -13 0 -12 -5 -17 -17 -17 -15 2 -16 -1 -5 -14 7 -9 8 -13 2 -10 -5
4 -18 -4 -28 -18 -11 -13 -25 -24 -32 -24 -8 0 -14 -5 -14 -11 0 -5 5 -7 12
-3 7 4 8 3 4 -5 -4 -6 -12 -9 -17 -6 -5 4 -9 1 -9 -5 0 -6 -4 -9 -9 -6 -4 3
-13 -6 -19 -19 -7 -14 -18 -25 -26 -25 -10 0 -13 -6 -9 -17 6 -16 5 -17 -12
-3 -11 9 -16 10 -11 3 4 -8 2 -13 -4 -13 -6 0 -8 -5 -5 -10 3 -6 -1 -13 -9
-16 -9 -3 -13 -10 -10 -15 3 -5 -3 -6 -12 -2 -12 4 -15 3 -10 -5 4 -7 1 -12
-10 -12 -13 0 -14 -3 -5 -14 14 -17 -5 -35 -32 -31 -15 3 -16 1 -5 -13 10 -12
10 -14 1 -8 -12 6 -18 -4 -14 -26 0 -4 -6 -5 -14 -2 -10 4 -15 0 -15 -15 0
-14 -9 -25 -25 -31 -28 -11 -34 -22 -7 -14 9 3 7 -1 -6 -8 -12 -8 -19 -18 -15
-22 4 -4 1 -6 -7 -4 -8 2 -14 -3 -12 -10 1 -8 -2 -11 -6 -8 -5 3 -18 -4 -28
-15 -16 -17 -16 -22 -4 -29 13 -8 12 -10 -2 -10 -10 0 -18 -5 -18 -11 0 -15
-26 -39 -42 -39 -10 0 -9 -3 2 -10 13 -8 12 -10 -3 -10 -10 0 -16 -4 -13 -8 2
-4 1 -14 -5 -22 -7 -13 -9 -13 -9 0 0 13 -1 13 -10 0 -5 -9 -5 -19 2 -27 8
-11 7 -12 -7 -7 -13 5 -16 4 -11 -4 4 -7 -6 -20 -26 -33 -18 -12 -25 -19 -15
-15 15 5 16 3 7 -15 -6 -11 -18 -23 -26 -26 -7 -3 -12 -8 -9 -12 2 -4 -5 -14
-15 -21 -15 -11 -17 -17 -8 -27 8 -11 7 -12 -7 -6 -15 5 -17 3 -12 -11 4 -9 3
-15 -1 -13 -4 2 -15 -4 -24 -15 -11 -10 -13 -18 -6 -18 12 0 2 -15 -10 -15 -4
0 -13 -4 -20 -9 -11 -6 -11 -11 0 -24 10 -12 10 -14 1 -8 -8 4 -13 1 -13 -9 0
-9 -4 -13 -10 -10 -6 4 -7 -1 -3 -11 4 -11 2 -15 -4 -11 -6 4 -14 0 -17 -9 -3
-8 -2 -12 4 -9 5 3 7 -1 4 -9 -3 -8 -12 -12 -20 -9 -10 4 -12 0 -8 -11 4 -10
0 -18 -10 -22 -9 -3 -14 -10 -11 -14 3 -5 -5 -16 -17 -24 -12 -9 -18 -16 -12
-16 5 0 15 5 22 12 8 8 12 8 12 1 0 -6 -7 -14 -16 -17 -8 -3 -12 -10 -9 -16 4
-6 -1 -7 -11 -3 -11 4 -15 3 -10 -5 3 -6 2 -13 -4 -17 -6 -4 -8 -11 -5 -16 4
-5 -2 -9 -12 -9 -15 0 -16 -2 -3 -10 13 -8 12 -10 -2 -10 -10 0 -18 -5 -18
-11 0 -5 6 -7 13 -4 6 4 3 -2 -9 -12 -11 -10 -18 -25 -16 -32 3 -8 0 -11 -7
-7 -7 5 -9 1 -5 -8 4 -11 0 -16 -12 -17 -11 0 -14 -3 -7 -5 7 -3 9 -12 6 -20
-3 -7 -9 -11 -14 -8 -5 3 -6 -3 -2 -12 5 -14 3 -16 -12 -10 -11 4 -16 4 -13 0
4 -4 3 -16 -3 -27 -7 -12 -7 -17 -1 -13 18 11 6 -26 -12 -40 -10 -7 -15 -17
-11 -23 3 -6 -2 -11 -12 -11 -15 0 -16 -2 -3 -10 13 -8 13 -10 -2 -10 -11 0
-15 -5 -12 -15 4 -8 1 -15 -6 -15 -6 0 -8 -4 -5 -10 3 -5 1 -10 -6 -10 -8 0
-8 -4 1 -16 8 -8 9 -14 4 -13 -21 4 -26 -2 -14 -16 10 -12 8 -14 -8 -10 -16 3
-20 -1 -17 -20 1 -14 -1 -22 -5 -20 -10 6 -21 -21 -12 -29 13 -14 10 -34 -6
-29 -10 4 -13 2 -8 -5 4 -7 2 -12 -4 -12 -6 0 -8 -5 -5 -10 3 -6 -1 -13 -10
-16 -13 -6 -14 -8 -3 -15 10 -7 11 -9 0 -9 -8 0 -10 -5 -6 -12 5 -8 2 -9 -9
-5 -14 5 -15 2 -7 -18 7 -19 6 -25 -4 -25 -8 0 -12 -9 -10 -26 2 -22 0 -23
-14 -12 -13 10 -14 11 -8 0 4 -7 2 -20 -6 -30 -12 -16 -11 -16 6 -2 18 14 19
14 8 -7 -7 -12 -16 -24 -21 -27 -5 -4 -7 -16 -3 -28 3 -13 1 -19 -5 -15 -6 4
-10 -3 -9 -16 1 -12 -3 -25 -8 -29 -12 -8 -17 -40 -5 -32 5 3 9 0 9 -5 0 -6
-7 -11 -16 -11 -8 0 -13 -4 -10 -9 3 -5 -1 -14 -9 -21 -12 -10 -13 -16 -4 -26
9 -11 8 -14 0 -14 -7 0 -9 -4 -6 -10 3 -5 0 -10 -7 -10 -9 0 -9 -3 2 -10 13
-9 13 -10 0 -10 -13 0 -13 -1 0 -10 13 -8 12 -10 -3 -10 -15 0 -16 -3 -6 -21
6 -12 7 -19 1 -15 -13 8 -22 -17 -17 -43 2 -11 -1 -24 -7 -27 -7 -5 -8 -2 -3
7 5 8 4 11 -1 6 -5 -5 -9 -12 -9 -15 0 -4 -4 -13 -8 -19 -5 -9 -3 -11 7 -7 9
3 14 0 12 -8 -2 -16 -31 -59 -37 -55 -2 1 2 -4 10 -10 12 -11 12 -13 -3 -19
-16 -6 -16 -8 1 -27 10 -11 13 -18 8 -14 -6 3 -17 2 -25 -4 -12 -7 -12 -9 -1
-9 11 0 11 -3 0 -16 -10 -13 -10 -17 2 -25 11 -7 8 -9 -11 -10 -22 0 -23 -1
-6 -8 19 -7 19 -8 1 -15 -16 -6 -17 -9 -5 -16 12 -8 12 -10 -3 -16 -9 -3 -14
-10 -11 -15 3 -5 10 -7 15 -4 5 3 6 -1 3 -9 -3 -9 -11 -16 -17 -16 -7 0 -7 -4
1 -12 13 -13 16 -32 4 -24 -4 2 -13 -4 -20 -14 -10 -16 -9 -18 6 -14 16 5 16
5 0 -9 -10 -8 -18 -17 -18 -20 0 -4 8 -4 18 0 14 5 15 3 5 -8 -17 -17 -17 -32
0 -24 6 4 5 1 -4 -7 -20 -17 -33 -51 -16 -43 6 4 3 -1 -7 -9 -16 -13 -16 -16
-5 -16 20 0 18 -38 -2 -51 -8 -5 -10 -9 -5 -9 6 0 5 -5 -1 -11 -13 -13 -6 -42
8 -33 5 3 9 0 9 -5 0 -6 -8 -11 -17 -12 -12 0 -13 -2 -5 -6 8 -3 10 -9 3 -16
-13 -17 -17 -69 -6 -86 6 -11 4 -13 -10 -7 -18 6 -18 6 1 -15 10 -12 13 -19 5
-14 -11 6 -13 4 -8 -7 3 -9 1 -20 -5 -26 -6 -6 -6 -12 1 -16 6 -4 11 -13 11
-19 0 -7 -4 -6 -10 3 -8 12 -10 11 -10 -5 0 -12 6 -27 13 -34 7 -9 7 -11 1 -8
-18 10 -25 -20 -8 -34 10 -8 11 -16 5 -22 -5 -5 -7 -16 -4 -25 4 -10 2 -13 -5
-8 -9 5 -9 1 -2 -18 6 -17 6 -26 -3 -30 -7 -2 -3 -5 7 -5 20 -1 20 -1 0 -17
-10 -8 -14 -13 -8 -10 7 3 14 -1 17 -9 4 -10 1 -12 -11 -9 -14 5 -13 3 2 -10
11 -9 15 -16 8 -16 -7 0 -10 -15 -9 -37 1 -21 -2 -43 -6 -50 -4 -6 -2 -15 4
-19 8 -5 9 -3 4 6 -5 9 -4 11 4 6 8 -6 9 -12 2 -20 -7 -9 -7 -16 0 -23 8 -8 7
-13 -2 -18 -8 -5 -10 -4 -5 3 5 8 1 10 -10 5 -11 -4 -13 -8 -6 -11 7 -2 12
-16 12 -30 0 -22 2 -24 11 -12 9 12 10 12 5 -3 -3 -10 -6 -21 -6 -23 0 -3 -4
-3 -8 0 -5 3 -9 -1 -9 -9 0 -8 7 -15 14 -15 12 0 11 -3 -1 -16 -10 -10 -13
-22 -8 -32 9 -21 8 -64 -3 -82 -5 -8 -4 -11 3 -6 7 4 10 -8 7 -39 -1 -25 2
-45 7 -45 5 0 2 -7 -6 -16 -20 -20 -20 -25 0 -17 14 5 15 3 6 -14 -8 -14 -8
-23 0 -31 9 -9 9 -18 0 -36 -10 -22 -8 -28 11 -42 15 -11 17 -15 5 -11 -21 7
-23 -3 -5 -22 10 -12 9 -13 -7 -7 -16 5 -17 4 -6 -9 7 -8 16 -13 19 -10 4 2 8
-2 8 -10 0 -8 -5 -11 -10 -8 -6 4 -7 1 -1 -8 14 -23 17 -62 3 -54 -6 4 -3 -4
6 -19 17 -25 17 -26 -1 -19 -16 6 -17 5 -4 -9 8 -9 19 -14 23 -11 5 3 4 -5 -3
-17 -10 -18 -9 -24 1 -31 11 -7 11 -9 -1 -9 -13 0 -13 -1 0 -10 8 -5 11 -10 7
-10 -4 0 -3 -8 2 -18 6 -11 6 -24 0 -34 -6 -11 -4 -21 6 -32 10 -10 12 -17 5
-21 -7 -4 -3 -14 11 -26 19 -17 20 -19 4 -19 -12 0 -15 -4 -8 -12 5 -7 9 -25
8 -40 -1 -23 1 -25 14 -15 12 10 13 9 3 -10 -15 -27 -15 -43 -1 -43 5 0 7 5 3
12 -4 7 -3 8 5 4 9 -6 9 -11 0 -22 -9 -11 -9 -14 1 -14 9 0 9 -4 -1 -17 -10
-11 -10 -14 -1 -9 8 5 12 -2 12 -23 0 -17 5 -31 11 -31 6 0 8 -9 4 -20 -5 -14
-2 -18 7 -15 9 4 14 -2 14 -14 0 -16 -3 -18 -15 -8 -12 10 -13 9 -4 -8 6 -11
9 -28 7 -38 -1 -11 0 -16 3 -13 7 7 32 -24 33 -39 0 -5 -5 -3 -10 5 -8 12 -9
9 -6 -10 7 -39 17 -60 30 -60 6 0 4 -5 -4 -10 -10 -6 -11 -10 -2 -10 6 0 12
-12 12 -26 0 -14 4 -23 8 -20 5 3 9 -1 9 -9 0 -8 -4 -12 -8 -10 -4 3 -5 -4 -2
-16 4 -16 8 -17 14 -7 7 10 9 10 9 -3 0 -8 -6 -21 -12 -28 -11 -10 -10 -11 5
-6 10 4 17 2 17 -4 0 -6 -6 -11 -12 -11 -8 0 -6 -5 4 -11 9 -5 15 -16 12 -23
-3 -8 0 -17 7 -22 8 -5 10 -3 4 6 -5 8 -4 11 2 7 6 -4 8 -18 5 -32 -2 -15 0
-25 7 -25 7 0 9 -4 6 -10 -3 -5 2 -10 12 -11 10 0 13 -3 6 -6 -16 -6 -17 -33
-2 -33 7 0 9 -10 7 -24 -3 -17 -1 -23 8 -19 8 3 11 -2 8 -15 -4 -11 5 -32 23
-53 15 -19 20 -28 11 -21 -14 11 -16 11 -11 -7 3 -12 11 -21 18 -21 8 0 11
-11 9 -31 -2 -18 0 -28 6 -24 6 3 10 -3 10 -13 0 -11 8 -26 18 -33 16 -13 16
-12 2 6 -11 16 -11 17 0 8 15 -14 23 -46 9 -37 -5 3 -9 0 -9 -5 0 -6 7 -11 15
-11 8 0 12 -6 9 -14 -3 -7 2 -16 10 -19 9 -4 13 -13 10 -22 -3 -8 -2 -15 3
-15 5 0 10 -7 11 -15 1 -8 3 -21 4 -29 1 -8 7 -12 14 -9 9 3 11 -2 7 -18 -5
-16 -3 -20 6 -15 8 6 11 2 9 -10 -2 -11 2 -18 10 -16 6 1 12 -5 12 -14 0 -9
-5 -13 -12 -9 -7 4 -4 -1 6 -9 11 -9 16 -16 11 -16 -4 0 2 -9 14 -19 16 -14
18 -21 9 -24 -11 -4 -10 -6 0 -6 7 -1 10 -5 7 -11 -3 -5 1 -10 9 -10 9 0 16
-5 16 -11 0 -5 -5 -7 -11 -4 -6 4 -5 -2 2 -13 7 -12 18 -18 24 -14 5 3 3 -3
-5 -13 -9 -11 -10 -16 -3 -11 8 4 13 1 13 -9 0 -10 5 -13 12 -9 7 5 8 3 3 -5
-4 -8 2 -21 15 -33 12 -11 19 -26 16 -33 -3 -8 3 -19 12 -27 16 -12 16 -11 2
7 -14 19 -14 19 3 6 9 -8 15 -16 13 -19 -10 -10 15 -42 27 -35 9 5 9 3 1 -8
-13 -17 -12 -44 1 -44 15 0 57 -45 42 -45 -7 -1 -4 -7 7 -15 10 -8 24 -11 30
-8 6 4 3 -3 -7 -14 -18 -20 -18 -21 0 -19 11 0 18 -6 18 -16 0 -9 4 -20 9 -25
5 -5 6 -2 1 6 -5 9 -4 12 3 7 7 -4 12 -16 12 -27 0 -11 4 -18 8 -15 4 2 14 -4
21 -16 10 -16 10 -19 -1 -12 -7 4 -2 -4 12 -18 14 -13 29 -22 34 -20 5 3 6 -1
1 -8 -5 -8 -2 -17 6 -24 8 -6 21 -20 29 -31 14 -19 14 -19 -6 -5 -15 12 -15
10 2 -6 13 -12 20 -25 17 -28 -4 -3 1 -6 10 -6 9 0 19 -5 23 -12 5 -7 3 -8 -5
-3 -10 6 -11 3 -2 -13 6 -11 20 -24 31 -27 21 -7 28 -26 8 -21 -7 1 -10 1 -5
-1 4 -3 5 -9 2 -14 -4 -5 1 -6 9 -3 9 4 18 -1 22 -10 3 -9 10 -13 15 -10 5 3
9 -3 9 -13 0 -10 9 -24 20 -31 12 -7 18 -17 14 -23 -3 -6 3 -13 14 -16 14 -3
19 -10 15 -21 -4 -10 -2 -13 5 -8 11 7 17 -6 13 -28 -1 -5 5 -3 14 4 13 11 15
10 9 -3 -6 -17 16 -47 36 -47 6 0 9 -4 5 -9 -3 -5 3 -12 12 -15 22 -7 50 -47
30 -43 -6 2 -2 -1 10 -7 13 -5 23 -14 23 -19 0 -14 48 -56 55 -48 4 3 5 -3 3
-14 -2 -15 2 -20 20 -19 16 1 20 -2 12 -11 -13 -15 -3 -25 18 -18 11 5 13 3 7
-7 -6 -10 -4 -12 8 -7 11 4 14 2 11 -8 -3 -8 3 -16 16 -20 12 -4 19 -9 16 -12
-3 -4 2 -12 12 -20 9 -8 11 -11 3 -7 -9 4 -12 3 -7 -4 3 -6 15 -9 25 -7 13 2
18 -2 17 -18 -1 -17 4 -22 22 -21 18 1 20 -1 10 -13 -6 -8 -7 -13 -2 -12 5 1
16 1 24 0 13 -1 13 -2 0 -11 -12 -8 -11 -10 8 -10 12 0 21 -3 21 -8 -4 -26 1
-34 16 -22 13 11 14 10 10 -2 -3 -8 2 -21 12 -29 16 -13 17 -12 4 4 -12 15
-12 17 3 11 9 -3 16 -13 16 -21 0 -8 5 -11 10 -8 6 3 10 -1 10 -10 0 -9 9 -19
20 -22 11 -3 18 -9 15 -13 -3 -4 3 -14 12 -21 14 -12 16 -12 8 1 -5 10 -1 8
13 -4 12 -10 19 -24 15 -30 -4 -6 1 -5 11 3 9 8 16 10 14 4 -2 -6 -1 -10 2 -9
10 2 38 -29 33 -36 -2 -5 1 -8 7 -8 6 0 8 -5 4 -12 -6 -10 -5 -10 8 0 13 10
18 9 29 -5 13 -17 13 -17 -6 -4 -19 14 -19 14 -4 -3 9 -9 25 -18 37 -19 15 -1
18 -5 11 -13 -7 -8 -6 -15 2 -20 8 -4 9 -3 5 4 -4 7 -1 12 9 12 9 0 14 -3 12
-7 -3 -5 5 -17 16 -28 11 -12 17 -14 13 -5 -4 8 0 6 8 -4 9 -11 16 -23 16 -26
0 -3 16 -12 35 -20 19 -8 35 -18 35 -23 0 -5 9 -7 21 -4 16 4 18 3 8 -9 -11
-13 -6 -18 14 -15 13 2 37 -26 29 -34 -4 -4 -2 -6 3 -4 15 3 96 -37 88 -44 -3
-4 1 -7 11 -7 9 0 19 -7 22 -15 4 -8 11 -15 17 -15 6 0 20 -8 31 -18 20 -16
20 -16 7 1 -14 17 -13 17 17 0 18 -10 32 -24 32 -31 0 -6 6 -11 13 -10 6 2 11
-2 10 -7 -1 -6 7 -12 18 -12 12 -1 17 3 13 9 -4 7 -2 8 5 4 9 -6 9 -11 -1 -24
-8 -9 -8 -13 -1 -9 16 10 44 -3 36 -17 -4 -6 2 -4 12 4 10 8 16 10 12 3 -4 -6
-3 -14 3 -18 5 -3 10 0 10 7 0 10 3 9 9 -2 6 -8 8 -17 6 -21 -3 -3 7 -5 20 -3
14 1 23 -2 19 -7 -3 -5 5 -9 18 -9 18 0 20 -2 8 -10 -12 -8 -11 -10 8 -10 12
0 22 -4 22 -10 0 -5 9 -10 20 -10 12 0 32 -7 45 -16 13 -9 30 -12 36 -8 8 4 9
3 5 -4 -4 -7 -2 -12 4 -12 6 0 9 -4 6 -9 -3 -4 6 -7 19 -5 14 1 29 -4 33 -13
5 -8 17 -15 27 -17 10 -1 22 -11 26 -22 4 -10 8 -13 8 -6 1 6 6 12 12 12 16 0
39 -26 31 -36 -4 -5 1 -2 11 5 11 9 17 10 17 2 0 -6 6 -10 13 -9 6 2 11 -3 9
-9 -1 -7 2 -13 8 -13 5 0 10 6 10 13 0 7 3 8 8 2 4 -5 16 -17 26 -25 18 -13
19 -13 11 0 -7 12 -6 13 7 3 8 -7 18 -10 21 -6 4 3 7 0 7 -8 0 -11 2 -11 10 1
8 12 10 10 10 -9 0 -17 4 -22 17 -17 9 4 20 1 25 -6 6 -10 8 -10 8 1 0 8 8 4
20 -10 10 -13 19 -21 20 -16 0 4 16 0 36 -8 20 -8 40 -12 45 -9 5 3 9 -2 9
-12 0 -13 3 -14 14 -5 10 9 16 8 26 -4 7 -8 16 -12 21 -9 5 3 9 0 9 -7 0 -9 3
-9 14 0 11 9 16 9 22 0 5 -8 3 -9 -6 -4 -8 5 -11 4 -7 -3 4 -5 15 -9 25 -8 9
2 20 -1 23 -6 3 -5 20 -10 37 -11 18 -1 32 -6 32 -11 0 -4 6 -6 14 -3 8 3 17
-1 20 -9 3 -9 12 -14 19 -11 6 2 21 -3 31 -12 11 -9 16 -11 13 -4 -4 6 -3 14
3 18 5 3 10 -2 10 -12 0 -15 2 -16 10 -3 5 8 10 10 10 4 0 -6 12 -16 26 -22
14 -7 23 -8 19 -3 -3 5 0 13 7 17 7 4 10 4 6 -1 -4 -4 -3 -14 3 -22 10 -11 14
-10 26 4 12 15 14 15 10 2 -4 -12 0 -15 19 -11 13 2 24 0 24 -7 0 -5 7 -8 15
-5 8 4 23 0 32 -7 14 -12 16 -12 8 1 -5 9 1 7 15 -5 13 -11 20 -14 16 -7 -4 6
-2 12 3 12 6 0 11 -5 11 -11 0 -5 4 -8 9 -4 5 3 17 -2 25 -11 9 -8 16 -11 16
-6 0 6 11 9 24 8 18 -1 22 -4 14 -14 -8 -9 -7 -11 6 -6 9 3 24 0 33 -7 15 -12
16 -12 9 5 -7 20 -7 20 15 0 14 -11 19 -13 14 -4 -7 12 -6 13 6 3 8 -6 34 -14
59 -16 31 -3 44 -9 42 -18 -2 -8 5 -6 19 6 12 11 19 15 16 9 -4 -7 0 -15 9
-18 23 -9 26 -8 19 6 -4 7 1 4 9 -6 12 -15 16 -16 16 -5 0 12 2 12 10 -1 7
-11 10 -11 10 -2 0 8 5 10 13 5 18 -11 38 -13 31 -2 -3 5 0 9 5 9 6 0 11 -3
11 -8 0 -4 9 -13 21 -20 14 -9 19 -9 14 -2 -5 8 -1 11 11 9 11 -2 25 0 31 4 8
5 11 3 8 -5 -4 -9 2 -14 15 -14 14 0 19 5 15 16 -3 8 4 4 15 -10 14 -18 18
-20 14 -6 -7 18 -6 18 22 0 15 -11 25 -13 21 -6 -5 6 -4 12 2 12 6 0 11 -6 11
-12 0 -9 4 -8 10 2 9 13 10 13 10 0 0 -13 1 -13 10 0 5 8 10 10 10 5 0 -6 9
-11 19 -11 11 0 18 3 15 7 -7 11 39 -3 66 -20 23 -15 24 -15 17 3 -7 16 -5 17
9 5 21 -17 56 -20 50 -3 -3 8 0 11 9 7 8 -3 12 -10 9 -17 -3 -6 2 -2 10 8 16
20 16 20 16 0 0 -16 2 -17 10 -4 8 13 10 13 10 1 0 -11 4 -10 16 5 8 10 13 14
9 7 -4 -9 7 -12 39 -11 25 0 43 4 40 9 -3 5 2 6 10 3 9 -3 14 -9 12 -13 -3 -4
4 -7 15 -7 10 0 19 5 19 11 0 5 5 3 10 -5 8 -12 10 -12 11 5 0 11 3 14 6 8 2
-8 22 -13 44 -13 29 0 38 4 34 13 -4 6 0 4 8 -5 18 -22 27 -23 27 -2 0 8 5 12
10 9 6 -4 8 -10 5 -15 -3 -4 4 -6 15 -3 11 3 17 10 13 16 -3 6 4 3 17 -6 22
-15 24 -15 37 1 12 13 14 14 10 2 -3 -10 2 -16 14 -16 11 0 19 3 19 7 0 4 7
10 16 13 8 3 12 2 9 -4 -4 -6 7 -10 24 -10 16 0 33 5 37 11 3 6 14 9 24 6 11
-3 21 2 25 11 4 12 8 13 17 4 7 -7 25 -12 40 -12 15 0 28 -5 28 -12 0 -6 9 -3
20 7 11 10 20 15 20 10 0 -4 11 0 25 9 21 14 24 14 19 1 -5 -11 -2 -13 10 -9
9 3 13 11 9 18 -4 6 1 5 10 -3 9 -7 17 -10 17 -6 0 4 8 1 17 -6 15 -12 16 -12
10 4 -4 10 -3 16 2 12 5 -3 12 -1 16 5 3 5 11 10 16 10 6 0 7 -6 3 -12 -5 -9
-2 -9 9 1 14 11 17 11 17 0 0 -12 2 -12 9 0 7 11 9 11 14 0 3 -8 6 -9 6 -3 1
6 12 9 26 6 19 -3 25 0 25 12 0 10 5 14 10 11 6 -4 8 -10 6 -14 -3 -3 4 -7 14
-7 15 0 16 3 8 14 -16 19 13 12 30 -8 8 -8 11 -10 7 -3 -7 15 37 28 61 19 13
-5 14 -3 6 6 -8 10 -4 13 14 14 13 1 24 -2 24 -8 0 -5 7 -2 16 6 18 19 38 21
28 4 -4 -7 4 -3 18 10 17 15 28 20 33 13 10 -17 28 -13 21 5 -5 14 -4 15 9 4
9 -8 15 -9 15 -2 0 6 15 10 35 8 25 -3 38 1 45 13 5 9 10 11 10 5 0 -6 7 -11
15 -11 9 0 14 6 11 12 -3 8 4 10 21 7 20 -4 24 -2 18 8 -6 9 -4 11 6 5 19 -13
49 -14 42 -2 -4 6 3 8 15 5 15 -4 25 0 32 10 8 14 10 14 10 2 0 -12 4 -10 15
4 10 13 15 15 15 6 0 -9 5 -7 15 6 8 10 15 14 15 8 0 -6 7 -11 15 -11 10 0 12
4 5 12 -6 7 -3 11 11 12 12 1 17 -3 13 -9 -5 -7 -2 -8 5 -4 7 5 10 13 8 20 -3
6 5 11 18 11 19 0 21 -3 12 -15 -6 -8 1 -4 15 9 15 12 31 20 36 17 6 -3 13 1
16 9 4 10 14 14 31 11 14 -3 31 2 40 10 12 12 15 12 15 2 0 -10 3 -9 10 2 5 8
10 11 10 6 0 -6 7 -1 16 10 8 10 13 13 9 6 -8 -15 11 -16 20 -1 4 6 13 8 21 5
8 -3 14 -1 14 5 0 6 4 8 9 5 5 -3 11 1 15 9 3 8 11 12 18 10 8 -3 23 3 35 14
15 14 23 17 27 8 3 -8 7 -9 13 -1 9 12 44 28 57 25 4 -1 14 3 20 9 7 5 16 7
19 3 4 -3 7 2 7 12 0 15 2 16 17 4 10 -9 14 -9 10 -2 -5 7 1 17 14 23 17 10
20 9 13 -2 -6 -10 -5 -11 8 -1 8 7 19 9 24 5 4 -4 2 2 -6 12 -14 18 -14 19 9
7 15 -8 21 -9 17 -2 -4 6 0 11 9 11 10 0 13 5 9 13 -5 8 -2 8 9 -2 15 -12 17
-11 17 5 0 16 2 16 10 4 8 -12 10 -12 16 3 3 9 10 17 16 17 5 0 6 -6 2 -12 -4
-8 -3 -10 2 -5 5 5 9 14 9 20 0 7 8 11 18 9 10 -2 17 3 17 12 0 9 7 12 19 9
10 -3 22 0 25 6 5 7 0 9 -11 5 -15 -5 -15 -4 -3 4 10 8 19 7 29 -1 12 -9 13
-9 7 1 -4 7 -2 12 4 12 6 0 8 5 4 13 -5 7 -2 7 10 -2 9 -8 16 -10 15 -5 -4 21
2 26 18 13 9 -8 14 -9 10 -3 -4 7 1 18 10 25 12 10 14 10 9 2 -4 -7 -2 -13 3
-13 6 0 11 5 11 11 0 5 5 7 10 4 9 -5 14 6 12 26 -1 3 10 5 24 3 21 -2 23 0
13 12 -10 12 -9 13 5 8 9 -3 23 -1 31 6 8 6 20 8 26 4 7 -4 9 -3 6 3 -4 6 0
14 9 17 8 3 12 11 8 17 -4 8 -1 8 15 0 18 -10 20 -9 14 5 -4 12 -3 15 5 10 7
-4 15 -1 18 8 3 8 19 18 36 21 18 4 28 12 24 20 -3 9 3 12 19 10 14 -1 22 2
19 6 -3 5 2 9 11 9 11 0 15 5 11 16 -4 9 -2 13 5 8 14 -8 60 16 53 28 -5 7 17
12 38 9 4 0 4 7 1 16 -4 11 -3 14 5 9 7 -4 12 -2 12 5 0 7 3 10 6 6 4 -3 13 1
21 9 8 8 19 12 24 9 5 -4 6 2 2 11 -4 12 -2 15 8 12 8 -3 24 6 36 19 12 12 30
23 40 23 15 0 16 2 3 10 -12 8 -9 10 13 10 15 0 27 5 27 11 0 5 6 7 13 3 7 -5
6 0 -3 11 -9 11 -10 16 -2 11 6 -4 12 -3 12 3 0 6 6 8 14 5 8 -3 17 0 22 7 5
8 3 10 -7 5 -8 -4 -6 -1 3 7 10 8 14 18 10 22 -4 4 3 3 14 -3 12 -6 24 -8 28
-5 3 3 6 1 6 -5 0 -7 7 -12 16 -12 8 0 12 -4 9 -10 -3 -5 3 -10 14 -10 12 0
21 -7 21 -16 0 -8 5 -12 10 -9 6 3 10 -1 10 -9 0 -15 12 -21 34 -17 5 1 6 -4
3 -12 -3 -8 3 -13 15 -14 11 -1 28 -11 37 -22 10 -11 21 -17 25 -14 4 4 4 0 0
-10 -5 -13 -1 -17 16 -17 11 0 19 -3 17 -8 -3 -4 5 -16 16 -27 11 -11 17 -15
13 -8 -3 6 -2 15 4 18 6 4 10 3 9 -2 -4 -22 3 -33 22 -33 11 0 17 -4 14 -10
-3 -5 0 -10 8 -10 8 0 21 -8 28 -17 13 -17 12 -17 -6 -3 -17 12 -18 12 -7 0
13 -15 17 -16 48 -19 8 0 13 -5 10 -10 -8 -12 22 -23 37 -14 7 3 9 3 5 -2 -10
-11 20 -38 33 -30 6 4 13 -3 16 -15 4 -16 8 -18 14 -8 6 9 9 7 9 -9 0 -17 5
-21 20 -18 11 2 18 0 15 -6 -4 -5 1 -9 10 -9 9 0 14 -4 11 -9 -3 -5 1 -12 10
-15 8 -3 12 -2 9 4 -3 6 1 7 9 4 9 -3 16 -12 16 -19 0 -7 7 -16 16 -19 23 -9
26 -8 19 6 -4 7 2 4 12 -7 10 -11 30 -26 46 -34 15 -8 27 -19 27 -25 0 -6 5
-4 10 4 8 12 10 10 11 -10 0 -14 3 -19 6 -12 3 9 10 7 24 -9 13 -15 19 -17 19
-8 1 10 4 9 11 -4 6 -9 15 -14 21 -11 6 4 8 3 5 -3 -4 -6 0 -16 8 -23 13 -11
14 -10 9 6 -5 14 1 11 19 -9 17 -19 27 -24 30 -15 4 9 6 7 6 -4 1 -11 7 -15
21 -11 12 3 20 0 20 -7 0 -7 6 -10 14 -7 16 6 40 -16 29 -27 -4 -4 1 -4 11 0
13 5 17 4 12 -4 -5 -8 2 -11 24 -8 27 3 29 1 18 -13 -7 -9 -8 -13 -4 -9 5 4
25 -2 44 -14 20 -12 32 -16 28 -10 -11 18 -2 15 24 -8 15 -13 31 -18 44 -14
12 3 16 2 10 -3 -9 -6 -8 -11 1 -20 11 -10 15 -10 18 0 4 9 6 9 6 0 1 -7 10
-13 22 -13 11 0 18 -4 15 -8 -3 -5 5 -8 17 -7 12 1 28 -6 34 -16 8 -10 23 -16
38 -15 13 2 22 0 20 -4 -3 -5 2 -11 11 -14 10 -4 13 -2 8 7 -6 8 -3 8 9 -1 9
-8 21 -11 26 -7 7 4 8 -1 4 -12 -6 -16 -5 -16 11 -4 14 12 17 12 14 1 -2 -8 3
-14 10 -15 7 0 17 -7 23 -15 9 -13 10 -12 5 3 -5 15 -2 16 13 7 11 -5 22 -15
24 -22 3 -8 6 -5 6 6 1 19 1 19 19 0 9 -10 28 -25 42 -33 23 -13 24 -13 11 2
-17 21 -8 22 13 1 11 -11 16 -12 16 -3 0 9 4 8 13 -3 13 -16 52 -34 43 -20 -3
5 1 9 9 9 8 0 13 -3 10 -5 -10 -10 30 -30 42 -21 7 7 16 4 25 -8 7 -10 25 -18
40 -18 15 1 26 -3 25 -8 -1 -5 4 -12 12 -15 10 -3 12 0 7 14 -6 17 -5 16 15
-2 11 -10 23 -18 25 -16 9 5 25 1 20 -6 -2 -4 4 -8 14 -8 10 0 16 4 14 8 -6 9
26 -1 43 -14 7 -5 13 -4 16 4 4 8 6 7 6 -4 1 -10 6 -18 12 -18 5 0 7 6 3 13
-6 8 -3 8 9 -1 9 -8 22 -10 28 -6 7 4 9 3 5 -4 -3 -6 -2 -13 4 -17 5 -3 10 -1
10 4 0 6 5 11 11 11 5 0 7 -5 3 -12 -5 -7 -2 -9 8 -5 9 3 21 0 28 -6 10 -9 11
-9 6 0 -10 18 0 16 20 -4 13 -13 19 -14 22 -5 2 6 8 12 13 12 6 0 7 -5 3 -12
-5 -8 -2 -9 9 -5 10 3 17 2 17 -4 0 -5 6 -9 13 -7 6 1 22 -3 34 -10 16 -9 24
-9 29 0 4 6 3 8 -2 5 -6 -3 -16 -1 -24 4 -12 7 -11 8 5 6 11 -2 28 -7 38 -12
9 -4 24 -5 32 -1 8 3 23 -3 33 -14 16 -17 20 -18 45 -5 16 8 25 10 21 3 -5 -8
-1 -9 10 -5 9 4 14 3 11 -2 -3 -5 -1 -12 5 -16 5 -3 10 -1 10 5 0 6 5 8 13 3
18 -11 38 -13 31 -2 -3 5 0 9 5 9 6 0 11 -6 11 -12 0 -9 4 -8 10 2 8 12 10 12
10 -5 0 -17 2 -17 10 -5 9 13 14 7 11 -12 0 -4 6 -5 14 -2 8 4 12 10 9 15 -3
5 0 9 5 9 6 0 11 -7 11 -16 0 -14 3 -14 15 -4 12 10 15 10 15 -1 0 -11 2 -11
10 1 9 13 11 13 20 0 7 -11 10 -12 10 -2 0 10 4 9 16 -3 12 -12 19 -13 24 -5
5 8 9 6 14 -5 4 -12 10 -14 19 -8 14 11 27 11 46 -1 11 -7 13 -5 7 10 -5 15
-4 16 5 7 6 -6 18 -9 27 -6 11 5 13 2 7 -6 -6 -10 -3 -11 11 -3 14 7 25 6 39
-4 15 -11 20 -11 27 -1 6 9 8 8 9 -3 0 -10 3 -8 9 5 l9 20 0 -20 c1 -17 3 -17
11 -5 8 12 10 12 11 -5 1 -17 2 -16 9 5 6 18 8 20 9 7 1 -11 5 -15 13 -11 12
7 77 7 117 -1 14 -3 21 1 22 13 0 14 2 13 9 -3 5 -11 9 -14 9 -6 1 9 5 10 14
3 6 -5 21 -6 32 -2 13 5 26 2 38 -8 17 -15 17 -14 11 4 -7 17 -6 18 11 4 10
-8 16 -10 12 -4 -4 8 2 11 17 10 13 0 22 -4 19 -8 -2 -5 1 -8 6 -8 6 0 11 7
11 16 0 14 1 14 16 0 19 -19 28 -21 18 -3 -5 8 -2 8 9 -2 15 -12 17 -11 17 3
0 10 5 14 10 11 6 -4 8 -11 5 -16 -4 -5 4 -5 19 1 25 9 30 6 27 -15 -1 -5 7 1
17 14 14 18 21 21 27 11 6 -9 4 -11 -5 -5 -8 5 -11 4 -7 -3 8 -11 44 -5 66 12
12 9 13 8 6 -3 -6 -11 -4 -13 9 -8 10 4 20 7 22 7 3 0 3 3 1 8 -3 4 5 7 18 7
16 0 20 -4 14 -11 -5 -7 -3 -11 6 -11 8 0 15 4 15 8 0 9 20 7 37 -4 6 -4 19 0
27 9 9 8 16 12 16 8 0 -3 6 -1 14 5 10 9 16 9 21 1 5 -8 11 -8 21 1 11 9 14 8
15 -2 0 -8 4 -5 9 6 8 19 9 19 9 1 1 -15 4 -16 15 -7 11 9 15 9 19 -1 3 -8 6
-5 6 6 1 11 4 16 7 13 4 -3 15 -2 25 3 13 8 21 6 29 -7 11 -17 11 -17 6 0 -6
18 9 24 19 7 5 -8 11 -7 20 0 8 7 20 8 26 4 9 -5 10 -2 5 12 -7 18 -6 18 10 2
16 -16 18 -16 31 0 7 9 13 13 12 7 -3 -24 2 -27 17 -9 8 10 12 12 8 4 -7 -12
-5 -13 8 -3 8 7 18 10 21 6 4 -3 7 0 7 7 0 10 3 11 11 3 12 -12 52 -5 43 8 -3
5 0 9 5 9 6 0 11 -4 11 -9 0 -5 11 -8 24 -7 16 1 21 5 15 12 -6 7 -1 10 14 9
12 -1 26 3 30 9 6 8 10 8 13 -1 6 -13 35 -6 46 11 5 7 8 5 8 -4 0 -13 2 -13 9
-1 5 8 17 16 25 17 9 1 14 -2 10 -7 -3 -5 -10 -6 -16 -3 -7 4 -8 2 -4 -4 5 -9
12 -9 26 0 10 7 16 17 12 23 -3 5 1 4 10 -3 13 -10 18 -10 24 -1 5 8 3 9 -6 4
-9 -6 -11 -4 -5 4 5 9 10 10 18 2 14 -14 30 -14 22 -1 -3 6 2 10 12 10 11 0
25 6 31 12 10 10 15 10 22 -2 6 -9 10 -10 10 -3 0 6 9 10 19 8 13 -2 18 1 15
9 -3 7 2 13 10 13 8 0 12 -5 9 -11 -4 -6 0 -5 8 1 9 7 26 11 38 8 20 -4 21 -2
9 12 -12 15 -11 15 11 4 19 -11 22 -11 16 0 -6 9 -3 11 8 6 10 -3 17 -2 17 4
0 6 5 7 12 3 8 -5 9 -1 4 12 -6 15 -5 16 5 7 10 -10 17 -9 33 5 16 13 18 13 8
1 -9 -13 -9 -16 3 -16 8 0 15 7 15 16 0 14 2 14 10 1 8 -13 10 -13 10 2 0 11
5 15 15 12 12 -5 13 -2 8 12 -7 18 -6 18 11 2 19 -20 31 -24 21 -8 -3 6 1 10
10 10 9 0 13 4 10 10 -3 5 -2 10 4 10 5 0 12 -6 15 -12 3 -10 8 -9 18 2 7 9
23 15 36 14 13 -1 26 5 29 12 3 8 9 12 13 9 13 -8 40 6 33 18 -4 6 -1 7 7 2 7
-4 16 -2 22 6 7 11 11 11 14 2 4 -10 8 -10 19 0 7 7 11 16 8 20 -3 5 1 8 8 6
33 -4 51 2 46 14 -4 10 2 13 19 9 17 -3 23 0 21 9 -2 8 -2 11 0 7 8 -14 41 -8
47 8 3 8 10 13 15 10 5 -3 12 1 15 10 5 14 9 14 23 3 12 -10 14 -10 9 -1 -5 8
1 12 20 12 15 0 25 3 21 6 -10 10 16 31 34 27 10 -3 24 5 33 18 10 15 16 18
16 9 0 -13 2 -13 9 -1 5 8 14 10 21 6 8 -5 11 -4 7 2 -4 6 0 14 9 17 8 3 13 2
10 -2 -3 -5 1 -9 9 -9 8 0 13 5 12 11 -1 6 6 10 15 10 10 -1 16 3 15 10 -1 6
4 10 11 9 6 -2 12 2 12 7 0 6 10 10 23 10 16 0 18 3 9 9 -11 7 -10 10 3 15 24
9 27 8 20 -6 -4 -7 2 -3 12 10 15 18 21 20 32 10 11 -10 12 -10 7 0 -4 7 -1
12 8 12 9 0 16 7 16 15 0 9 6 12 17 8 13 -5 15 -2 10 12 -6 14 -5 15 6 7 10
-9 16 -7 27 8 7 10 17 17 22 14 4 -3 8 0 8 6 0 7 7 10 15 6 8 -3 15 -1 15 5 0
6 6 7 13 3 7 -5 6 0 -3 11 -14 17 -14 18 9 6 15 -8 21 -9 17 -2 -4 6 -2 11 4
11 6 0 8 4 5 10 -4 6 1 7 11 3 13 -5 16 -3 11 10 -3 9 -2 19 4 22 5 4 9 3 8
-2 -4 -24 4 -23 27 3 15 16 23 24 20 17 -4 -7 4 -6 24 3 16 9 30 19 30 24 0 5
7 7 15 4 11 -5 13 -2 9 10 -5 12 -2 15 10 10 11 -4 16 -1 16 11 0 9 5 13 10
10 6 -3 10 -1 10 4 0 6 7 11 16 11 8 0 13 4 10 9 -3 5 10 16 29 25 19 9 39 24
44 34 6 9 11 13 11 8 0 -5 9 3 21 18 18 23 23 25 37 14 12 -10 14 -10 8 0 -4
6 -3 12 2 12 5 0 14 10 21 23 6 12 9 14 6 4 -3 -10 -1 -15 5 -12 6 3 10 13 10
21 0 8 6 13 13 11 6 -1 11 4 9 12 -2 8 3 11 12 8 10 -4 20 2 26 14 7 11 16 17
23 12 7 -4 5 2 -3 12 -9 11 -10 16 -2 11 7 -4 12 -2 12 4 0 6 5 8 10 5 6 -3
10 -2 10 4 0 5 9 8 21 6 17 -4 19 -2 8 11 -10 12 -9 13 6 8 13 -5 16 -4 11 4
-4 7 -2 12 4 12 6 0 8 4 5 10 -4 6 1 7 11 3 13 -5 15 -3 9 7 -6 10 -4 12 9 7
11 -4 15 -3 11 4 -4 5 6 22 21 37 23 22 26 24 21 7 -7 -18 -6 -19 6 -3 8 10
16 15 19 12 3 -3 9 7 12 21 4 14 10 23 15 20 5 -2 12 2 15 11 4 9 9 14 12 11
9 -8 30 15 38 40 5 14 12 20 22 16 8 -3 14 -2 12 3 -2 5 1 10 7 11 5 1 13 11
17 23 5 13 12 18 20 14 8 -5 9 -2 4 12 -4 10 -4 15 0 12 3 -4 13 0 21 8 8 8
18 12 23 9 4 -3 6 5 3 17 -4 19 -3 20 6 8 10 -15 12 -13 15 13 0 6 8 12 16 12
9 0 14 8 12 19 -2 12 1 16 9 10 8 -5 11 -2 7 7 -3 8 4 23 15 34 11 11 16 14
12 6 -5 -9 -4 -12 3 -7 7 4 12 13 12 20 0 18 45 58 54 49 5 -5 5 3 1 17 -7 24
-7 25 9 5 9 -11 16 -15 15 -10 -1 6 0 13 1 18 1 4 3 12 4 19 0 6 7 13 15 16 9
3 11 0 6 -8 -5 -8 -4 -11 3 -6 6 4 9 13 6 21 -4 8 1 18 10 21 12 5 14 10 6 19
-9 11 -7 12 10 8 11 -3 20 -2 19 3 -3 18 1 37 7 31 10 -9 36 21 29 33 -4 6 -1
9 7 8 7 -2 12 2 11 9 -2 8 4 10 14 6 13 -5 15 -2 11 15 -4 14 -2 19 8 15 9 -3
12 2 9 16 -3 15 0 18 12 14 13 -5 15 -2 11 15 -3 12 -3 21 1 20 19 -2 31 3 26
12 -3 6 1 10 10 10 9 0 14 4 11 9 -3 5 1 12 9 15 8 3 14 11 13 18 -2 7 2 12 8
11 6 -1 10 9 8 23 -2 19 1 24 12 20 8 -3 14 1 14 9 0 8 5 15 11 15 5 0 7 4 4
10 -3 5 -1 10 4 10 6 0 11 7 11 16 0 9 5 12 12 8 8 -5 9 -2 5 9 -4 10 -2 17 4
17 6 0 8 7 5 16 -3 8 -2 12 4 9 6 -3 10 1 10 10 0 8 6 18 14 21 8 3 12 12 9
20 -4 10 0 12 11 8 12 -5 15 -2 10 10 -4 10 6 27 27 48 19 17 27 28 19 24 -12
-6 -12 -5 1 6 17 15 40 73 32 82 -3 3 4 3 17 1 18 -4 20 -2 9 11 -10 12 -10
15 0 12 7 -2 17 8 22 22 9 24 8 24 -6 6 -8 -11 -15 -15 -15 -9 0 6 12 21 28
33 15 12 22 19 15 16 -6 -4 -15 -1 -19 5 -4 7 -3 9 3 6 5 -4 20 3 31 14 26 24
29 37 5 18 -16 -12 -17 -12 -6 2 7 9 10 19 6 23 -4 4 0 4 10 0 12 -4 17 -1 17
13 0 11 9 28 19 37 11 10 18 26 16 37 -2 10 0 21 6 24 5 4 9 1 9 -6 0 -7 3 -9
6 -6 4 4 1 13 -6 22 -10 12 -9 15 5 15 15 0 16 2 4 17 -10 11 -10 14 -1 9 7
-4 12 -2 12 4 0 6 4 8 10 5 6 -3 7 1 4 9 -4 9 -1 16 6 16 10 0 10 3 0 15 -11
13 -10 14 3 9 12 -4 14 -1 10 17 -4 14 -2 20 5 15 6 -3 14 -1 18 5 4 7 3 9 -4
5 -6 -3 -13 -2 -17 4 -3 5 1 10 9 10 8 0 18 5 22 12 5 7 3 8 -7 2 -10 -6 -9 0
4 19 9 14 17 33 17 41 0 7 7 16 15 20 8 3 15 11 15 18 0 9 -3 9 -11 -2 -9 -12
-10 -12 -5 3 3 10 6 21 6 23 0 3 5 2 10 -1 6 -3 10 -3 11 2 2 29 10 47 24 63
12 13 13 20 4 25 -8 6 -7 11 6 18 13 7 14 11 5 17 -9 6 -7 11 9 19 17 10 19
15 11 31 -9 16 -7 20 5 20 9 0 13 4 10 10 -3 6 0 10 7 11 7 0 4 4 -7 9 -18 8
-18 9 -2 9 10 1 17 7 14 14 -2 6 3 18 12 25 12 10 13 12 1 6 -13 -7 -13 -5 -1
9 9 12 10 17 2 17 -8 0 -8 4 1 14 7 8 16 12 19 10 3 -2 6 3 6 11 0 8 -5 11
-11 8 -6 -4 -5 1 2 10 8 9 11 21 7 26 -4 7 1 8 12 4 16 -6 17 -5 3 12 -8 10
-10 16 -4 12 7 -4 14 2 17 13 3 12 -1 23 -10 29 -13 7 -13 9 1 14 11 5 15 3
10 -5 -4 -6 -3 -8 3 -5 6 4 13 16 16 27 3 11 1 18 -3 15 -5 -3 -12 -1 -15 5
-4 6 -3 10 2 9 27 -5 35 1 23 16 -8 10 -9 15 -2 15 7 0 9 7 5 17 -5 11 -3 14
6 8 10 -6 11 -2 6 15 -4 13 -3 20 2 17 10 -6 12 3 13 66 1 20 5 35 11 32 5 -4
9 -2 9 4 0 5 3 18 6 28 5 15 4 15 -5 3 -7 -9 -11 -11 -11 -3 0 7 8 17 18 22
11 7 13 10 3 11 -10 0 -11 3 -2 14 6 7 9 21 5 30 -4 9 -1 16 6 16 10 0 10 3 0
15 -11 13 -10 14 4 9 9 -3 16 -2 16 4 0 6 -6 12 -12 15 -9 3 -7 10 6 26 20 22
20 22 0 16 -12 -4 -10 -1 6 9 14 8 19 15 11 16 -11 0 -11 3 -1 15 9 10 9 15 1
15 -6 0 -11 5 -11 11 0 5 4 8 9 5 13 -9 20 31 8 43 -8 8 -8 11 1 11 7 0 12 5
12 11 0 5 -4 7 -10 4 -6 -3 -7 1 -4 9 3 9 11 13 18 9 6 -4 4 2 -4 12 -8 10
-10 16 -3 12 6 -4 14 -3 18 3 3 5 0 10 -7 10 -9 0 -9 3 2 10 12 8 12 10 -5 10
-14 0 -16 3 -7 9 7 4 12 12 11 17 -4 22 2 35 14 28 6 -4 9 -4 5 1 -4 4 -3 14
4 22 8 10 8 12 -4 8 -10 -4 -14 0 -13 14 1 11 4 24 8 27 4 4 -1 13 -11 21 -14
11 -14 12 -1 7 13 -4 16 1 13 31 -2 29 0 34 10 25 10 -8 13 -5 11 14 -2 14 -6
30 -11 37 -4 8 -3 9 4 5 16 -9 15 7 0 22 -9 9 -9 12 1 12 10 0 11 3 2 13 -8
10 -7 17 2 26 9 9 9 14 -3 21 -13 8 -12 10 4 10 15 0 16 3 7 14 -9 11 -9 16 1
23 16 10 20 43 6 43 -6 0 -5 6 2 15 10 12 10 15 0 15 -9 0 -9 4 1 17 11 13 11
17 1 21 -10 3 -10 7 -1 19 10 12 10 16 -1 23 -11 7 -11 11 -1 24 11 12 11 16
1 16 -10 0 -10 3 -1 14 7 8 8 17 3 20 -5 3 -8 20 -7 38 1 18 -3 39 -9 47 -8
11 -8 13 1 8 6 -4 14 -3 18 3 3 5 0 10 -7 10 -9 0 -9 3 2 10 13 8 12 10 -4 10
-20 0 -20 0 0 15 14 10 15 14 5 15 -12 0 -12 3 -3 12 9 9 7 14 -5 23 -13 10
-13 14 -3 20 9 6 11 4 5 -6 -5 -8 -4 -10 0 -6 11 10 16 37 6 37 -4 0 -7 9 -7
19 0 11 4 17 8 15 4 -3 8 -1 8 4 0 6 -7 13 -16 16 -15 6 -15 8 2 28 14 15 16
22 6 25 -6 3 -9 9 -6 14 10 18 12 59 1 59 -5 0 -4 6 2 14 7 8 8 16 2 18 -5 1
-11 14 -13 28 -1 14 -7 28 -12 32 -6 4 -4 13 3 22 9 11 10 16 2 16 -6 0 -11 5
-11 11 0 5 4 8 8 5 4 -2 8 4 8 14 0 10 -3 17 -7 14 -9 -5 -6 17 4 33 4 6 2 13
-3 15 -6 2 -12 13 -13 26 0 12 -5 22 -10 22 -5 0 -3 7 4 17 11 13 11 17 2 20
-7 3 -13 9 -13 14 0 6 4 7 10 4 14 -9 13 8 -2 23 -8 8 -8 15 1 26 8 9 9 16 2
21 -6 3 -9 16 -7 28 2 12 -4 30 -12 40 -15 16 -14 17 1 11 10 -3 17 -1 17 5 0
9 -11 14 -30 13 -3 0 -6 13 -6 29 -2 26 0 28 14 17 14 -12 14 -11 1 10 -8 12
-16 22 -20 22 -8 0 -5 32 4 47 4 6 2 15 -4 19 -8 5 -9 3 -4 -6 5 -8 4 -11 -3
-6 -6 4 -9 13 -5 21 3 9 -1 15 -8 15 -11 0 -11 2 1 10 12 7 11 12 -5 31 -11
12 -14 19 -7 15 14 -8 16 3 2 24 -5 9 -5 19 2 27 8 10 7 12 -3 8 -11 -4 -14 4
-14 34 0 22 -2 39 -5 39 -18 -1 -21 4 -9 19 8 9 9 14 3 10 -7 -4 -15 0 -18 9
-4 10 -2 13 7 8 9 -5 9 -4 0 7 -17 17 -17 32 0 23 6 -4 2 4 -11 18 -15 17 -20
28 -13 33 8 4 6 11 -4 22 -10 10 -12 19 -6 27 11 13 -11 49 -25 38 -4 -4 -2 1
5 10 12 17 9 22 -12 19 -4 -1 -4 7 1 16 12 22 4 45 -11 36 -7 -4 -7 -1 1 9 9
11 10 18 2 23 -6 3 -7 11 -4 17 4 6 2 8 -3 5 -6 -4 -14 0 -17 9 -9 24 -7 31 4
14 16 -25 10 3 -6 30 -11 18 -14 19 -9 5 5 -16 4 -17 -6 -8 -10 10 -9 16 2 29
9 12 10 15 2 10 -9 -5 -13 1 -13 21 0 23 -2 25 -11 13 -9 -12 -10 -11 -6 8 4
16 0 22 -11 23 -11 0 -12 2 -4 6 18 7 14 30 -9 46 -13 10 -17 17 -10 22 6 3 9
11 5 16 -3 5 -10 7 -15 4 -5 -4 -4 6 1 21 9 24 9 25 -5 14 -18 -15 -20 0 -2
19 9 11 9 13 0 7 -7 -4 -13 -2 -13 4 0 6 -4 9 -8 6 -5 -3 -9 1 -9 9 0 8 4 12
9 9 16 -10 -27 86 -44 97 -5 3 -10 15 -11 27 0 11 -4 19 -8 17 -3 -3 -11 7
-18 22 -11 23 -10 25 3 13 27 -21 18 -2 -11 24 -23 22 -25 27 -12 42 12 15 12
16 -7 10 -14 -4 -21 -2 -21 8 0 9 3 13 7 11 4 -2 7 2 7 10 0 8 -3 14 -6 13
-28 -3 -33 2 -20 19 10 11 10 14 2 9 -9 -5 -13 0 -13 16 0 18 -2 20 -10 8 -8
-12 -10 -9 -10 13 0 16 -7 35 -15 44 -8 8 -13 19 -10 24 4 5 1 9 -5 9 -6 0 -8
5 -5 10 3 6 -1 10 -9 10 -9 0 -16 5 -16 11 0 5 5 7 11 3 13 -8 -31 57 -46 68
-6 5 -6 8 -1 8 6 0 1 7 -10 16 -10 8 -12 12 -4 8 12 -7 13 -5 3 8 -7 8 -10 18
-7 21 4 4 -5 11 -20 17 -23 8 -25 13 -16 29 9 17 7 19 -11 16 -18 -4 -19 -2
-7 12 9 12 9 15 1 9 -8 -4 -13 -1 -13 9 0 20 -25 46 -35 37 -5 -4 -5 -2 -1 5
3 6 2 14 -4 18 -6 4 -8 11 -5 16 4 5 1 9 -4 9 -6 0 -11 7 -11 15 0 8 -9 20
-19 27 -16 10 -18 15 -8 27 9 12 9 13 0 7 -8 -4 -17 2 -25 18 -6 14 -15 26
-20 26 -4 0 -8 6 -8 14 0 7 -8 20 -17 27 -17 13 -17 13 -3 -6 14 -19 14 -19
-3 -6 -10 8 -16 22 -14 32 3 11 -2 19 -14 22 -13 3 -17 11 -13 21 4 10 1 16
-10 16 -10 0 -13 5 -9 17 5 13 2 15 -11 10 -11 -5 -15 -3 -10 4 4 7 -4 21 -17
31 -13 11 -19 17 -13 14 6 -3 11 1 11 9 0 18 -9 19 -24 4 -9 -9 -10 -6 -6 11
5 19 3 22 -12 16 -15 -5 -16 -4 -5 9 11 13 9 15 -11 16 -13 0 -19 3 -12 6 10
3 10 7 0 18 -7 7 -15 11 -18 9 -3 -2 -12 9 -20 23 -8 15 -24 38 -36 51 -13 14
-20 28 -17 33 3 5 -3 12 -13 16 -24 9 -44 29 -36 37 4 3 1 6 -5 6 -6 0 -14 9
-17 20 -3 11 -13 20 -20 20 -8 0 -22 16 -31 35 -18 38 -47 60 -66 49 -7 -5 -8
-3 -3 6 9 15 -43 63 -59 53 -6 -4 -5 1 3 10 12 15 12 17 -4 11 -12 -5 -16 -4
-11 4 3 6 -3 13 -14 17 -18 6 -25 17 -21 38 1 5 -3 6 -9 2 -5 -3 -10 -1 -10 5
0 6 -4 8 -10 5 -5 -3 -10 1 -10 10 0 10 -5 13 -12 9 -8 -5 -9 -2 -5 10 5 14 3
17 -8 12 -14 -5 -20 5 -16 27 1 5 -3 6 -9 2 -5 -3 -10 -1 -10 5 0 6 -4 8 -10
5 -5 -3 -10 1 -10 10 0 9 -4 13 -10 10 -5 -3 -10 1 -10 9 0 9 -4 16 -9 16 -5
0 -12 8 -16 19 -4 12 -13 17 -30 16 -17 -2 -22 1 -18 11 3 9 -1 14 -12 14 -9
0 -13 5 -10 10 3 6 1 10 -5 10 -16 0 -40 26 -32 35 4 4 0 5 -8 3 -9 -2 -14 3
-12 11 2 11 0 12 -11 3 -11 -10 -17 -9 -28 5 -12 16 -12 17 1 8 9 -5 6 -1 -7
10 -13 12 -23 27 -23 35 0 13 -2 13 -10 0 -8 -13 -10 -12 -10 3 0 9 -6 16 -12
15 -7 -2 -12 2 -11 9 1 6 -4 14 -13 17 -10 4 -13 2 -8 -6 4 -7 3 -8 -4 -4 -7
4 -12 14 -12 23 0 11 -6 14 -21 10 -16 -4 -18 -3 -9 8 8 10 7 13 -7 11 -10 0
-17 5 -15 12 2 10 -17 17 -41 13 -4 0 -6 5 -5 11 2 7 -3 12 -9 10 -7 -1 -13 5
-13 14 0 8 -4 12 -10 9 -5 -3 -10 -1 -10 5 0 6 -4 8 -10 5 -5 -3 -10 1 -10 11
0 14 -2 15 -17 3 -10 -7 -15 -10 -11 -5 8 9 -33 46 -51 46 -6 0 -8 6 -5 14 3
9 -2 13 -18 12 -14 -1 -26 7 -34 22 -13 27 -23 29 -35 10 -6 -9 -9 -7 -9 10 0
12 -5 21 -12 20 -7 -2 -12 3 -10 10 1 6 -5 12 -14 12 -8 0 -12 -4 -9 -10 3 -5
4 -10 0 -10 -3 0 -10 12 -15 26 -9 23 -12 24 -27 13 -12 -10 -15 -10 -9 -1 4
7 1 15 -8 18 -9 3 -13 10 -10 15 3 5 -1 6 -9 4 -7 -3 -24 3 -37 15 -26 23 -36
26 -24 7 5 -7 2 -5 -7 5 -9 9 -19 14 -23 11 -3 -4 -6 2 -6 13 0 16 -2 17 -10
4 -6 -10 -10 -11 -10 -2 0 6 -9 12 -20 12 -11 0 -20 7 -20 15 0 9 -6 12 -17 8
-12 -5 -15 -2 -10 10 4 12 2 14 -10 10 -11 -4 -14 -2 -9 5 10 16 -6 15 -23 0
-8 -7 -11 -8 -9 -3 3 6 0 16 -8 23 -11 10 -14 10 -14 0 -1 -7 -6 -4 -13 7 -7
11 -23 22 -36 23 -13 2 -31 11 -40 21 -9 9 -12 11 -7 4 6 -10 4 -12 -8 -7 -9
3 -16 10 -16 16 0 5 -4 7 -9 4 -5 -3 -11 0 -14 8 -3 7 -15 16 -27 19 -19 5
-20 3 -8 -11 12 -15 11 -16 -4 -3 -10 7 -18 21 -19 30 0 10 -2 12 -6 3 -3 -9
-9 -7 -21 6 -10 10 -13 12 -8 5 6 -10 4 -12 -8 -7 -9 3 -16 11 -16 17 0 6 -3
7 -7 4 -3 -4 -12 1 -20 11 -8 9 -12 11 -8 5 4 -9 1 -11 -9 -7 -9 3 -13 11 -9
18 4 6 -1 5 -10 -3 -15 -12 -17 -11 -17 2 0 12 -8 15 -32 12 -24 -3 -29 -2
-18 5 11 7 11 10 2 10 -7 0 -10 5 -7 11 4 6 -3 5 -14 -3 -19 -11 -24 -10 -39
10 -14 18 -20 20 -31 10 -12 -11 -13 -10 -8 5 7 20 -4 22 -21 5 -9 -9 -12 -8
-12 6 0 12 -5 16 -15 13 -8 -4 -17 -1 -21 5 -5 7 -2 8 7 3 8 -5 11 -5 7 0 -5
5 -22 10 -40 12 -17 2 -36 8 -43 13 -7 6 -16 5 -25 -3 -10 -10 -12 -9 -7 5 4
11 -1 18 -14 21 -17 5 -18 3 -7 -11 7 -9 -3 -4 -23 11 -27 20 -38 24 -47 15
-9 -9 -12 -8 -12 5 0 9 -5 17 -11 17 -5 0 -7 -4 -4 -10 3 -6 -1 -7 -9 -4 -9 3
-16 10 -16 15 0 5 -13 9 -30 9 -17 0 -30 5 -30 13 0 8 -4 7 -10 -3 -9 -14 -15
-7 -11 14 1 5 -5 6 -13 3 -9 -4 -18 -2 -21 3 -4 6 -12 10 -18 10 -7 0 -6 -4 3
-10 12 -8 11 -9 -7 -7 -11 2 -28 9 -37 16 -9 7 -16 10 -16 5 0 -5 -4 -3 -9 5
-5 8 -28 14 -52 15 -25 1 -44 7 -44 13 0 6 -4 15 -9 20 -5 4 -6 3 -2 -4 10
-18 -11 -25 -27 -8 -19 18 -31 20 -21 3 6 -10 4 -10 -7 0 -7 6 -17 12 -22 12
-4 0 -5 -6 -2 -12 4 -7 1 -6 -7 2 -7 9 -22 14 -33 12 -16 -2 -17 -1 -5 7 19
13 1 14 -20 1 -10 -6 -20 -4 -32 7 -10 9 -18 12 -18 7 0 -5 -8 -10 -19 -10
-12 0 -17 5 -13 15 4 10 1 13 -11 8 -10 -4 -20 0 -26 11 -10 16 -10 16 -11 -2
0 -13 -4 -16 -17 -11 -10 4 -28 7 -40 6 -13 0 -23 3 -23 8 0 5 -7 12 -16 15
-8 3 -12 2 -9 -4 3 -6 1 -10 -4 -10 -6 0 -11 4 -11 9 0 5 -9 7 -20 4 -11 -3
-20 0 -20 6 0 6 -5 11 -11 11 -5 0 -8 -4 -5 -8 3 -5 -7 -8 -22 -7 -26 1 -27 4
-28 56 -2 75 -3 81 -13 75 -5 -4 -7 4 -3 16 4 16 2 19 -9 14 -8 -4 -6 -1 3 7
14 11 15 16 5 27 -8 8 -8 11 -1 7 16 -9 28 24 13 33 -8 6 -7 9 2 13 9 4 10 6
2 6 -7 1 -10 8 -6 18 5 12 3 14 -8 9 -8 -4 -5 0 6 9 22 18 23 24 3 36 -9 6 -6
9 12 9 19 0 22 3 11 9 -13 8 -13 12 0 27 12 16 12 17 -1 10 -12 -6 -12 -5 1 6
20 17 33 51 16 43 -6 -4 -4 0 5 8 14 11 15 16 5 27 -9 9 -9 11 0 6 6 -3 14 -2
18 4 3 5 1 10 -5 10 -6 0 -8 5 -5 10 4 6 10 8 15 5 11 -7 23 25 21 55 -1 18 1
21 7 12 7 -11 11 -7 16 13 4 14 4 30 1 35 -4 6 1 7 11 3 13 -5 16 -3 11 10 -4
12 -1 15 14 12 10 -2 19 0 19 6 0 5 -5 9 -10 9 -6 0 -5 6 2 14 7 8 17 11 22 8
5 -3 6 2 3 12 -4 10 -3 15 3 11 6 -3 10 -1 10 5 0 6 4 8 10 5 5 -3 7 0 4 8 -3
8 0 18 5 22 6 3 8 12 4 18 -4 7 1 6 10 -2 15 -12 17 -12 10 4 -5 14 -3 17 10
12 12 -4 14 -2 10 10 -4 11 -2 14 5 9 7 -4 12 -2 12 4 0 6 5 8 13 4 7 -5 6 0
-3 11 -8 10 -10 16 -3 12 16 -10 56 30 47 45 -4 7 -3 8 5 4 15 -10 41 11 35
28 -2 6 4 12 16 13 24 2 52 27 42 39 -4 5 1 2 11 -5 15 -12 17 -12 11 3 -6 15
5 21 29 17 5 -1 5 4 1 10 -5 8 -2 10 7 7 10 -4 15 1 17 15 1 17 -1 19 -8 7 -8
-13 -10 -12 -10 3 0 10 -4 16 -9 13 -5 -3 -12 1 -15 10 -6 15 -8 15 -25 0 -11
-10 -22 -13 -25 -8 -3 5 -15 12 -26 15 -11 3 -18 1 -14 -4 8 -13 -10 -11 -25
4 -9 7 -11 7 -8 1 9 -15 -20 -27 -29 -12 -5 7 -2 8 6 3 9 -5 11 -4 6 4 -6 8
-12 9 -20 2 -7 -6 -17 -7 -21 -3 -5 4 -5 -2 -1 -12 7 -19 6 -19 -13 -2 -18 17
-21 17 -27 3 -3 -9 -12 -13 -19 -11 -7 3 -16 0 -20 -5 -3 -6 -11 -9 -16 -6 -5
4 -9 1 -9 -6 0 -8 -4 -8 -15 1 -13 11 -14 10 -9 -5 5 -13 4 -16 -4 -11 -7 4
-12 3 -12 -3 0 -6 -7 -8 -15 -5 -9 4 -15 0 -15 -10 0 -9 -5 -16 -11 -16 -5 0
-7 4 -4 10 3 6 -1 7 -10 4 -9 -4 -14 -12 -12 -19 3 -6 -1 -12 -9 -12 -7 0 -11
4 -8 8 2 4 -4 7 -15 6 -12 -1 -17 -6 -13 -16 4 -11 0 -13 -16 -9 -12 4 -20 2
-16 -3 3 -5 0 -9 -6 -9 -6 0 -8 -6 -4 -12 4 -7 3 -10 -1 -5 -5 4 -19 -3 -32
-15 -13 -12 -23 -16 -23 -10 0 7 5 12 12 12 6 0 9 2 6 5 -8 9 -38 -6 -32 -16
3 -5 -2 -9 -11 -9 -9 0 -13 -4 -10 -10 4 -6 -1 -7 -11 -3 -12 4 -15 3 -10 -5
4 -7 2 -12 -5 -12 -6 0 -18 -8 -26 -17 -9 -12 -12 -13 -8 -3 4 8 -6 1 -22 -15
-15 -17 -25 -26 -20 -21 4 6 7 15 7 20 0 6 -8 -1 -18 -17 l-19 -27 -26 20
c-15 12 -27 28 -27 35 0 8 -10 21 -22 31 -16 11 -18 15 -5 10 14 -4 16 -2 9
12 -5 9 -7 23 -4 31 3 8 0 11 -6 7 -6 -4 -5 6 3 21 8 15 11 32 7 37 -4 6 -7
27 -6 46 1 19 -3 42 -9 50 -6 8 -7 12 -3 8 15 -13 40 31 27 46 -7 9 -7 16 2
26 10 10 9 12 -3 6 -8 -4 -6 0 4 8 11 9 16 16 12 16 -5 0 -2 8 5 17 12 15 12
16 -1 8 -13 -8 -13 -7 -1 8 7 9 10 17 5 17 -4 0 1 7 12 16 10 8 13 13 7 9 -14
-7 -18 7 -6 19 10 10 13 37 3 31 -5 -3 -11 1 -13 7 -4 10 -6 10 -6 0 -1 -7 -5
-11 -10 -8 -5 3 -21 0 -36 -8 -17 -9 -22 -16 -13 -19 9 -4 8 -6 -3 -6 -9 -1
-24 -11 -33 -23 -9 -13 -14 -17 -10 -9 4 9 3 12 -4 7 -6 -3 -9 -15 -7 -26 3
-18 1 -19 -18 -9 l-22 12 20 -22 c14 -16 15 -22 5 -19 -8 2 -14 -2 -13 -9 2
-7 -6 -10 -17 -8 -17 3 -19 1 -9 -17 8 -15 8 -18 0 -14 -6 4 -19 2 -28 -4 -16
-10 -16 -11 2 -6 19 6 18 5 -2 -13 -12 -10 -19 -22 -15 -26 4 -5 -1 -5 -11 -2
-15 6 -16 4 -7 -13 6 -11 7 -20 3 -19 -20 3 -27 -2 -13 -11 13 -8 13 -10 -2
-10 -9 0 -20 -5 -24 -12 -5 -7 -2 -9 7 -4 8 4 3 -2 -11 -14 -14 -12 -18 -18
-10 -14 12 6 13 5 3 -8 -7 -8 -10 -18 -6 -22 4 -4 -1 -4 -12 0 -15 6 -17 4
-12 -9 3 -9 2 -17 -3 -17 -5 0 -7 -7 -4 -15 4 -9 0 -15 -9 -15 -11 0 -14 -8
-12 -27 2 -24 1 -25 -10 -9 -9 12 -14 13 -17 5 -3 -8 -9 -9 -17 -5 -11 7 -11
10 0 17 12 7 12 9 0 9 -7 0 -11 6 -7 15 3 9 0 15 -9 15 -8 0 -15 5 -15 11 0 5
5 7 10 4 6 -4 5 5 -2 19 -6 14 -16 26 -21 26 -5 0 -4 7 3 15 9 10 9 15 1 15
-6 0 -11 7 -11 16 0 9 -5 12 -12 8 -7 -5 -8 -3 -3 7 5 7 10 22 10 31 1 15 -1
15 -14 5 -12 -9 -13 -9 -7 1 4 6 3 12 -3 12 -10 0 -7 31 5 53 5 7 0 6 -11 -3
-17 -14 -17 -13 -10 9 5 17 4 22 -5 16 -9 -5 -10 -2 -6 13 4 11 2 23 -4 27 -6
3 -7 11 -4 17 4 6 2 8 -3 5 -14 -9 -31 13 -28 35 2 9 -4 23 -13 32 -15 13 -20
13 -36 0 -11 -8 -15 -14 -10 -14 6 0 14 3 19 8 6 4 1 -3 -10 -14 -11 -12 -24
-19 -30 -16 -5 3 -3 -3 5 -13 10 -13 11 -16 2 -11 -14 9 -55 -21 -47 -34 3 -4
-3 -14 -12 -21 -14 -12 -16 -12 -8 1 5 9 5 12 -1 7 -9 -9 -10 -13 -13 -42 0
-8 -4 -14 -8 -14 -27 4 -35 -3 -31 -26 3 -13 2 -24 -1 -23 -20 2 -31 -4 -31
-17 0 -8 -9 -19 -19 -24 -10 -6 -24 -24 -30 -41 -7 -21 -16 -30 -28 -28 -10 2
-17 -2 -16 -9 2 -7 -6 -17 -18 -23 -17 -10 -18 -14 -7 -28 7 -9 9 -14 4 -10
-5 4 -16 -2 -25 -14 -10 -11 -29 -22 -43 -23 -21 -2 -25 1 -21 16 4 13 0 19
-11 19 -10 0 -13 5 -9 17 4 11 3 14 -5 9 -8 -5 -12 0 -12 13 0 12 -7 21 -16
21 -8 0 -12 5 -9 10 3 6 -2 10 -11 10 -10 0 -14 3 -11 6 4 4 -6 18 -21 32 -15
13 -20 21 -12 17 8 -3 7 0 -4 9 -11 9 -15 20 -10 28 6 10 4 10 -9 -1 -15 -12
-17 -11 -17 3 0 11 -5 14 -12 10 -7 -5 -9 -2 -5 9 6 16 -15 41 -26 30 -9 -8
-48 27 -42 37 2 4 -4 15 -15 25 -11 10 -20 14 -20 9 0 -5 -10 2 -23 16 -12 14
-17 19 -12 10 9 -13 8 -13 -7 -1 -10 7 -18 20 -18 27 0 8 -5 14 -11 14 -5 0
-7 6 -3 13 5 7 0 6 -11 -3 -11 -9 -16 -10 -11 -2 4 7 2 12 -8 12 -8 0 -16 5
-18 12 -3 8 -9 8 -24 0 -12 -7 -14 -12 -5 -12 11 0 11 -3 1 -15 -10 -12 -10
-15 1 -15 9 0 10 -3 4 -8 -13 -9 -13 -42 -1 -61 6 -10 5 -12 -2 -7 -7 4 -12 3
-12 -3 0 -5 5 -13 11 -17 8 -4 7 -9 -2 -16 -11 -8 -11 -11 -1 -15 10 -4 10 -8
0 -21 -7 -9 -8 -13 -3 -10 16 10 12 -47 -5 -68 -8 -10 -10 -15 -3 -11 6 4 14
3 18 -3 3 -5 0 -10 -7 -10 -9 0 -9 -3 2 -10 12 -8 12 -10 1 -10 -11 0 -11 -3
0 -17 10 -11 10 -14 2 -9 -8 4 -13 2 -13 -6 0 -9 -3 -9 -10 2 -6 10 -10 11
-10 3 0 -7 -5 -13 -11 -13 -6 0 -9 7 -6 14 4 10 1 13 -9 9 -7 -3 -14 0 -14 6
0 6 -7 11 -16 11 -9 0 -23 8 -31 18 -8 9 -12 12 -9 6 3 -7 -1 -14 -9 -18 -8
-3 -14 -2 -14 2 3 19 -2 25 -11 12 -8 -13 -10 -13 -10 2 0 12 -5 15 -17 11
-10 -4 -14 -2 -10 4 4 6 -3 8 -19 5 -16 -3 -30 1 -35 9 -7 12 -9 12 -9 0 0 -7
-6 -11 -15 -8 -8 4 -17 2 -21 -4 -4 -6 -14 -3 -27 8 -12 10 -17 12 -12 4 6
-11 4 -13 -8 -8 -10 4 -17 1 -17 -5 0 -9 -3 -9 -12 0 -9 9 -16 8 -31 -6 -15
-12 -21 -14 -24 -4 -7 17 -23 15 -23 -4 0 -8 -5 -12 -11 -8 -6 3 -15 0 -20 -7
-7 -11 -9 -11 -9 -1 0 10 -4 9 -16 -2 -8 -9 -19 -14 -24 -11 -5 3 -11 -1 -13
-7 -4 -10 -6 -10 -6 0 -1 6 -6 12 -12 12 -5 0 -7 -4 -4 -10 3 -5 1 -10 -6 -10
-6 0 -18 -8 -26 -17 -8 -10 -12 -12 -8 -6 4 9 1 11 -11 6 -16 -6 -15 -8 4 -16
12 -6 22 -14 22 -19 0 -5 5 -6 10 -3 6 4 9 1 8 -7 -2 -7 2 -12 9 -11 7 2 10
-4 7 -12 -6 -14 5 -19 34 -16 6 1 12 -5 12 -14 0 -9 8 -19 18 -22 21 -9 42
-28 42 -41 0 -6 7 -13 16 -16 15 -6 15 -4 3 11 -11 14 -9 13 12 -2 15 -11 25
-23 22 -27 -2 -5 3 -8 12 -8 9 0 14 -4 11 -9 -3 -5 2 -15 11 -22 14 -12 16
-12 8 0 -5 9 -4 12 3 7 6 -4 9 -13 5 -21 -3 -9 1 -15 11 -15 10 0 13 -6 9 -15
-3 -10 0 -15 8 -13 7 2 14 -3 15 -9 1 -7 3 -16 4 -20 1 -5 2 -12 1 -16 -1 -5
3 -6 8 -3 5 4 12 2 16 -4 3 -5 1 -10 -5 -10 -7 0 -6 -5 2 -14 7 -8 15 -12 18
-11 3 2 6 -4 7 -13 2 -29 9 -51 18 -59 4 -4 5 -2 0 6 -6 10 -4 12 4 7 7 -5 10
-10 7 -13 -3 -3 0 -15 6 -27 11 -20 10 -20 -7 -6 -11 8 -6 -3 10 -24 17 -22
24 -37 18 -32 -7 4 -13 2 -13 -3 0 -6 5 -11 10 -11 6 0 10 -5 10 -11 0 -5 -4
-8 -8 -5 -4 2 -8 -4 -8 -14 0 -12 4 -16 11 -10 6 5 10 0 10 -16 0 -13 -4 -24
-10 -24 -5 0 -2 -7 8 -14 10 -8 13 -16 7 -18 -12 -4 -13 -19 -7 -93 2 -27 2
-44 -1 -37 -3 10 -8 8 -17 -5 -11 -15 -11 -21 3 -36 15 -17 15 -17 -4 -11 -17
7 -18 6 -4 -11 8 -10 10 -16 5 -13 -6 4 -16 -2 -23 -12 -10 -17 -9 -18 6 -13
14 6 15 4 5 -8 -7 -9 -15 -26 -17 -40 -3 -13 -5 -26 -6 -29 -2 -3 -2 -9 -1
-14 1 -5 -4 -4 -12 2 -12 10 -14 8 -10 -15 4 -22 2 -25 -6 -13 -9 13 -11 13
-11 -2 0 -12 -5 -15 -17 -11 -12 5 -14 3 -8 -8 4 -8 4 -11 0 -6 -5 4 -18 -1
-29 -10 -12 -10 -15 -11 -8 -3 6 8 12 18 12 24 0 5 -9 -1 -20 -14 -12 -14 -20
-18 -20 -10 0 11 -3 11 -12 2 -14 -14 -32 -16 -24 -3 4 5 -5 4 -19 -2 -14 -7
-25 -15 -25 -19 0 -5 -5 -8 -11 -8 -5 0 -7 6 -4 13 4 6 0 5 -7 -5 -10 -12 -18
-14 -31 -6 -12 6 -17 6 -15 -3 2 -6 -10 -13 -26 -16 -16 -2 -35 -11 -43 -19
-8 -8 -18 -12 -23 -9 -5 3 -11 -1 -13 -7 -4 -10 -6 -9 -6 1 -1 11 -4 11 -16 1
-9 -7 -18 -10 -22 -7 -3 4 -12 -1 -20 -11 -10 -11 -12 -12 -8 -2 4 10 1 9 -8
-3 -9 -11 -21 -15 -32 -10 -13 4 -16 3 -11 -5 5 -8 2 -10 -8 -6 -9 3 -16 2
-16 -4 0 -5 -7 -13 -16 -16 -15 -6 -15 -4 -3 11 8 11 4 10 -11 -4 -14 -12 -42
-24 -62 -28 -22 -4 -35 -12 -32 -17 4 -6 1 -8 -7 -6 -20 8 -51 -11 -42 -25 4
-7 0 -7 -10 2 -15 12 -17 11 -18 -5 0 -11 -3 -14 -5 -7 -3 7 -12 9 -20 6 -7
-3 -11 -10 -7 -17 4 -6 0 -6 -9 2 -13 10 -18 10 -24 1 -4 -8 -3 -9 4 -5 7 4
12 5 12 2 0 -2 -14 -11 -30 -20 -20 -9 -28 -10 -24 -3 3 7 0 5 -8 -3 -7 -9
-20 -14 -30 -12 -9 2 -20 -2 -24 -9 -5 -8 -3 -10 7 -4 12 8 12 6 0 -8 -14 -18
-26 -23 -16 -8 11 18 -14 21 -27 4 -7 -10 -20 -18 -28 -18 -8 0 -14 -5 -13
-12 2 -7 -3 -10 -11 -7 -8 3 -17 0 -21 -6 -6 -9 -10 -9 -16 1 -7 11 -9 10 -9
-3 0 -9 -5 -20 -12 -24 -7 -4 -8 -3 -4 4 4 7 -9 3 -28 -9 -20 -12 -36 -26 -36
-32 0 -7 -5 -5 -10 3 -8 13 -10 12 -10 -2 0 -10 -3 -17 -7 -16 -5 1 -18 -3
-29 -10 -12 -6 -25 -8 -29 -4 -5 4 -5 -1 -2 -11 6 -15 4 -16 -16 -6 -20 11
-21 11 -8 -5 12 -14 12 -16 -4 -10 -14 6 -16 4 -10 -7 7 -11 5 -11 -10 1 -11
9 -16 10 -11 3 4 -8 2 -13 -4 -13 -6 0 -8 -4 -5 -10 3 -5 0 -7 -9 -4 -19 7
-66 -24 -66 -45 0 -14 -2 -14 -10 -1 -9 14 -15 7 -11 -14 1 -5 -5 -4 -13 3
-12 10 -19 6 -41 -26 -21 -30 -25 -33 -20 -13 6 24 6 24 -13 -3 -11 -16 -22
-28 -26 -28 -19 3 -26 0 -21 -9 3 -5 -6 -12 -20 -16 -15 -4 -22 -11 -18 -18 4
-6 -2 -4 -12 4 -10 8 -16 10 -13 5 4 -6 3 -17 -3 -25 -6 -11 -9 -12 -9 -2 0 7
-5 10 -10 7 -6 -4 -8 -11 -5 -16 4 -5 1 -9 -5 -9 -6 0 -8 -5 -4 -12 5 -8 0 -7
-11 2 -17 14 -18 13 -12 -4 7 -17 5 -17 -10 -5 -10 7 -15 9 -11 5 11 -13 -11
-36 -34 -36 -10 0 -16 -4 -13 -10 3 -5 1 -10 -5 -10 -6 0 -8 -5 -4 -12 5 -8 0
-7 -11 2 -17 14 -18 13 -12 -2 4 -13 1 -16 -14 -13 -15 3 -19 0 -15 -10 3 -9
-1 -15 -10 -15 -9 0 -12 -5 -8 -12 4 -6 3 -8 -4 -4 -6 3 -21 -4 -33 -16 -12
-13 -18 -17 -14 -9 5 9 4 12 -3 7 -7 -4 -12 -14 -12 -22 0 -8 -5 -14 -11 -14
-5 0 -7 6 -3 13 5 9 4 9 -6 0 -16 -15 -40 -6 -40 16 0 14 -2 14 -10 1 -7 -11
-10 -11 -10 -2 0 7 -4 10 -10 7 -5 -3 -10 1 -10 9 0 9 -5 16 -10 16 -6 0 -28
18 -50 40 -22 22 -46 40 -55 40 -14 0 -20 12 -16 34 1 5 -6 3 -16 -4 -10 -8
-15 -10 -10 -5 4 5 -5 15 -20 22 -16 7 -20 11 -10 8 10 -3 15 -1 12 5 -3 6
-13 10 -21 10 -8 0 -17 7 -20 15 -4 8 -10 15 -16 15 -5 0 -6 -5 -2 -12 4 -7 3
-8 -4 -4 -6 4 -9 13 -5 22 3 8 2 14 -3 13 -25 -4 -45 2 -38 13 5 7 2 9 -9 5
-11 -4 -14 -2 -10 9 3 8 -1 14 -10 14 -8 0 -18 7 -21 16 -3 8 -10 12 -16 9 -5
-3 -10 -1 -10 5 0 6 -4 8 -10 5 -5 -3 -10 -1 -10 5 0 6 -5 8 -10 5 -6 -4 -9
-1 -8 7 2 7 -3 12 -9 10 -7 -1 -13 4 -13 12 0 10 -7 13 -20 11 -11 -2 -18 0
-15 6 4 5 -1 9 -9 9 -9 0 -16 5 -16 11 0 5 -5 7 -12 3 -7 -5 -9 -2 -6 7 4 10
-1 15 -13 16 -24 2 -51 28 -41 39 4 5 -1 2 -10 -5 -15 -11 -18 -11 -18 2 0 11
-6 13 -22 9 -20 -5 -21 -3 -10 10 11 14 10 16 -5 14 -10 -2 -23 4 -29 12 -6 9
-20 17 -30 18 -10 2 -20 8 -22 13 -2 6 -8 11 -13 11 -6 0 -7 -5 -3 -12 4 -7 3
-8 -5 -4 -9 6 -9 11 1 24 9 11 9 14 1 9 -7 -5 -25 0 -40 10 -15 10 -24 13 -21
7 4 -6 1 -11 -7 -11 -8 0 -13 5 -12 11 1 5 -5 10 -13 11 -9 0 -14 8 -12 18 3
20 -14 23 -21 5 -4 -10 -6 -10 -6 0 -1 6 -10 12 -20 12 -11 0 -23 5 -27 12 -5
7 -3 8 6 3 9 -5 11 -4 6 4 -6 9 -11 9 -22 0 -11 -9 -14 -7 -15 12 0 13 -3 18
-6 11 -4 -10 -9 -9 -20 5 -8 10 -12 12 -8 6 9 -19 -4 -16 -23 5 -10 10 -13 12
-8 5 6 -10 4 -12 -8 -7 -15 6 -20 17 -17 37 1 4 -9 3 -21 -4 -13 -6 -20 -8
-16 -4 8 9 -36 35 -58 35 -8 0 -14 5 -14 11 0 7 -12 10 -29 7 -17 -2 -28 -1
-25 4 10 16 -7 29 -22 17 -12 -9 -13 -9 -9 2 4 10 -2 15 -16 16 -11 1 -27 10
-35 20 -13 17 -14 17 -8 -2 l6 -20 -19 20 c-10 11 -24 20 -30 21 -30 2 -34 5
-27 17 5 8 2 8 -9 -2 -15 -11 -17 -11 -17 2 0 11 -6 13 -21 10 -15 -4 -27 0
-35 12 -11 14 -14 15 -15 4 0 -8 -4 -6 -9 6 -6 13 -9 15 -9 5 -1 -12 -3 -13
-10 -1 -5 7 -20 14 -35 14 -14 0 -23 3 -20 8 3 5 -4 9 -16 9 -14 0 -19 4 -14
13 5 8 2 8 -9 -2 -15 -12 -17 -11 -17 5 0 17 -1 17 -15 -2 -11 -13 -14 -14
-13 -4 2 8 -3 14 -9 12 -7 -1 -13 2 -13 6 0 4 -12 9 -27 10 -15 1 -30 8 -35
15 -6 9 -8 8 -8 -3 0 -12 -2 -13 -9 -1 -5 8 -14 10 -21 6 -8 -5 -11 -4 -6 3 7
12 -29 26 -44 17 -5 -3 -10 -2 -10 3 0 13 -30 11 -31 -2 -1 -6 -5 0 -9 14 -6
18 -8 20 -9 7 -1 -17 -2 -17 -17 -3 -8 9 -20 14 -25 11 -5 -4 -9 -1 -9 4 0 6
-5 11 -11 11 -5 0 -7 -6 -4 -12 4 -7 -3 -2 -14 11 l-21 23 -1 -23 c-1 -18 -3
-19 -6 -6 -2 9 -9 15 -14 12 -5 -4 -9 -2 -9 3 0 14 -38 22 -44 8 -3 -7 -5 -7
-5 2 -1 6 -6 12 -12 12 -5 0 -7 -6 -4 -12 4 -7 0 -5 -8 5 -8 10 -21 17 -29 16
-24 -3 -39 1 -35 9 3 4 -8 7 -23 7 -16 1 -27 -2 -24 -6 7 -13 -24 -3 -43 12
-20 17 -31 18 -50 6 -8 -5 -13 -3 -13 3 0 6 -10 11 -22 10 -40 -4 -50 -1 -42
13 5 7 0 6 -11 -3 -10 -8 -16 -10 -12 -4 4 7 -2 14 -14 17 -16 4 -19 2 -15
-11 5 -15 4 -15 -8 1 -14 19 -31 24 -20 6 3 -6 -5 -4 -19 5 -18 12 -26 14 -29
5 -2 -7 -15 -2 -32 15 -16 14 -25 26 -21 26 4 0 0 12 -10 26 -9 15 -12 23 -6
20 11 -7 16 8 11 29 -1 6 -3 17 -3 25 0 8 -5 18 -11 22 -7 5 -4 8 7 8 9 0 17
5 17 11 0 5 -4 8 -9 5 -5 -3 -11 1 -15 9 -3 8 0 17 6 21 7 5 8 2 3 -7 -5 -8
-4 -11 0 -6 5 4 9 16 10 27 1 16 -1 18 -13 7 -13 -10 -14 -9 -3 11 7 12 17 20
23 16 7 -4 8 -3 4 5 -4 6 -11 9 -15 7 -4 -3 -8 1 -8 9 0 8 4 12 8 10 9 -6 21
24 13 36 -3 5 0 9 5 9 6 0 11 5 11 11 0 5 -6 7 -12 4 -7 -4 -6 -1 2 7 13 11
17 21 23 63 1 6 7 13 12 17 6 5 4 8 -5 8 -10 0 -7 5 7 15 13 9 20 22 17 30 -4
8 -1 15 5 15 6 0 8 7 4 17 -5 12 -3 14 7 8 10 -6 12 -3 7 14 -3 13 -3 20 0 17
3 -3 12 2 20 12 8 9 11 11 7 3 -4 -9 -3 -12 4 -8 12 8 11 25 -2 46 -6 10 -5
12 3 7 15 -10 41 11 41 33 0 10 12 28 27 42 20 18 24 19 13 4 -14 -19 -14 -19
3 -6 13 11 15 17 6 28 -10 11 -9 12 5 7 11 -4 16 -1 16 10 0 9 7 16 15 16 8 0
15 5 15 11 0 5 -6 7 -12 3 -9 -5 -9 -3 1 9 7 9 18 14 23 11 5 -3 8 2 6 12 -2
14 2 18 16 16 12 -2 16 1 10 9 -5 9 -2 10 12 5 10 -4 15 -4 12 0 -8 8 10 28
35 37 10 4 15 11 12 17 -3 5 6 15 20 20 16 6 23 14 19 22 -4 7 -3 8 5 4 11 -7
44 17 35 27 -3 2 6 7 19 11 14 3 28 14 31 23 6 14 5 15 -5 6 -10 -10 -18 -8
-38 10 -13 12 -21 15 -17 7 6 -11 4 -11 -6 1 -15 19 -71 23 -61 5 3 -6 0 -6
-8 2 -7 6 -17 12 -22 12 -4 0 -5 -6 -1 -12 6 -10 4 -10 -7 0 -15 14 -33 16
-24 3 3 -5 0 -13 -6 -17 -6 -3 -15 0 -20 7 -5 8 -9 9 -9 4 0 -6 -9 -11 -20
-12 -13 -1 -18 2 -14 10 4 7 -3 2 -15 -10 -22 -24 -37 -31 -26 -13 9 15 -28
-1 -43 -19 -8 -9 -11 -10 -7 -4 4 10 0 10 -17 4 -13 -5 -22 -15 -20 -22 2 -10
0 -10 -11 0 -12 9 -16 8 -21 -4 -3 -8 -9 -14 -13 -14 -4 1 -24 -4 -43 -12 -19
-7 -39 -12 -44 -11 -5 2 -3 -4 4 -13 11 -13 10 -14 -5 -9 -13 5 -16 4 -10 -5
6 -10 3 -11 -15 -1 -14 8 -20 8 -16 1 4 -6 -7 -17 -26 -26 -18 -8 -25 -13 -15
-10 11 3 16 1 11 -6 -3 -6 -15 -9 -25 -6 -11 3 -17 2 -14 -2 2 -5 -7 -13 -21
-20 -14 -6 -23 -15 -19 -20 3 -5 0 -13 -6 -17 -8 -4 -9 -3 -5 4 4 7 2 12 -3
12 -11 0 -15 -15 -11 -35 1 -5 -4 -5 -11 2 -9 9 -15 8 -26 -3 -17 -16 -43 -19
-43 -3 0 5 -5 7 -12 3 -8 -5 -9 -2 -5 9 4 12 1 17 -10 17 -12 0 -13 3 -4 14 9
10 7 17 -6 27 -17 13 -17 13 -3 -6 14 -19 14 -19 -3 -6 -12 10 -15 17 -7 25
16 16 12 29 -6 22 -14 -5 -15 -4 -4 9 10 12 10 15 -1 15 -8 0 -6 6 7 16 10 8
14 13 8 10 -7 -3 -14 1 -18 9 -3 8 -1 15 3 15 5 0 9 12 8 28 0 50 3 63 14 56
7 -4 7 1 -1 16 -10 18 -9 24 7 37 17 14 17 14 -1 8 -20 -6 -20 -6 0 16 10 12
13 19 7 15 -9 -5 -11 -2 -7 8 3 9 10 13 15 10 5 -3 6 2 3 10 -3 9 -11 16 -18
17 -6 0 0 5 13 10 18 7 21 13 13 21 -8 8 -7 17 5 34 8 13 11 24 7 24 -5 0 -2
5 6 10 13 8 12 10 -3 10 -10 0 -16 4 -12 9 3 6 -3 9 -14 8 -11 0 -17 -5 -15
-9z m-466 -138 c0 -5 -5 -10 -11 -10 -5 0 -7 5 -4 10 3 6 8 10 11 10 2 0 4 -4
4 -10z m6193 -95 c-3 -9 -8 -14 -10 -11 -3 3 -2 9 2 15 9 16 15 13 8 -4z
m-598 -35 c3 -5 1 -10 -4 -10 -6 0 -11 5 -11 10 0 6 2 10 4 10 3 0 8 -4 11
-10z m80 -70 c3 -5 1 -10 -4 -10 -6 0 -11 5 -11 10 0 6 2 10 4 10 3 0 8 -4 11
-10z m-5475 -20 c0 -5 -5 -10 -11 -10 -5 0 -7 5 -4 10 3 6 8 10 11 10 2 0 4
-4 4 -10z m625 -429 c3 -5 2 -12 -3 -15 -5 -3 -9 1 -9 9 0 17 3 19 12 6z m235
-537 c0 -8 -19 -13 -24 -6 -3 5 1 9 9 9 8 0 15 -2 15 -3z m-2825 -274 c3 -5 1
-10 -4 -10 -6 0 -11 5 -11 10 0 6 2 10 4 10 3 0 8 -4 11 -10z m5650 -480 c-3
-5 -12 -10 -18 -10 -7 0 -6 4 3 10 19 12 23 12 15 0z m-965 -60 c0 -5 -5 -10
-11 -10 -5 0 -7 5 -4 10 3 6 8 10 11 10 2 0 4 -4 4 -10z m7100 -825 c14 -19
14 -19 -2 -6 -10 7 -18 18 -18 24 0 6 1 8 3 6 1 -2 9 -13 17 -24z m55 -65 c3
-6 -1 -7 -9 -4 -18 7 -21 14 -7 14 6 0 13 -4 16 -10z m-13825 -60 c0 -5 -5
-10 -11 -10 -5 0 -7 5 -4 10 3 6 8 10 11 10 2 0 4 -4 4 -10z m15035 -2879 c3
-5 2 -12 -3 -15 -5 -3 -9 1 -9 9 0 17 3 19 12 6z m-520 -2491 c-3 -5 -12 -10
-18 -10 -7 0 -6 4 3 10 19 12 23 12 15 0z m-14850 -179 c3 -5 2 -12 -3 -15 -5
-3 -9 1 -9 9 0 17 3 19 12 6z m1296 -1408 c13 -17 13 -17 -6 -3 -11 8 -22 16
-24 17 -2 2 0 3 6 3 6 0 17 -8 24 -17z m1109 -599 c0 -8 -19 -13 -24 -6 -3 5
1 9 9 9 8 0 15 -2 15 -3z m2255 -322 c-3 -3 -11 0 -18 7 -9 10 -8 11 6 5 10
-3 15 -9 12 -12z"/>
<path d="M6095 13370 c3 -5 8 -10 11 -10 2 0 4 5 4 10 0 6 -5 10 -11 10 -5 0
-7 -4 -4 -10z"/>
<path d="M10470 13346 c0 -2 7 -9 15 -16 13 -11 14 -10 9 4 -5 14 -24 23 -24
12z"/>
<path d="M10260 13260 c0 -5 5 -10 11 -10 5 0 7 5 4 10 -3 6 -8 10 -11 10 -2
0 -4 -4 -4 -10z"/>
<path d="M11660 13006 c0 -2 8 -10 18 -17 15 -13 16 -12 3 4 -13 16 -21 21
-21 13z"/>
<path d="M11956 12232 c-3 -5 1 -9 9 -9 8 0 12 4 9 9 -3 4 -7 8 -9 8 -2 0 -6
-4 -9 -8z"/>
<path d="M13110 11910 c0 -5 5 -10 11 -10 5 0 7 5 4 10 -3 6 -8 10 -11 10 -2
0 -4 -4 -4 -10z"/>
<path d="M1588 11108 c-10 -10 -14 -18 -9 -18 10 0 36 29 30 34 -2 1 -12 -6
-21 -16z"/>
<path d="M15060 10461 c0 -6 4 -13 10 -16 6 -3 7 1 4 9 -7 18 -14 21 -14 7z"/>
<path d="M520 9649 c0 -5 5 -7 10 -4 6 3 10 8 10 11 0 2 -4 4 -10 4 -5 0 -10
-5 -10 -11z"/>
<path d="M180 8719 c0 -5 5 -7 10 -4 6 3 10 8 10 11 0 2 -4 4 -10 4 -5 0 -10
-5 -10 -11z"/>
<path d="M15975 8660 c3 -5 8 -10 11 -10 2 0 4 5 4 10 0 6 -5 10 -11 10 -5 0
-7 -4 -4 -10z"/>
<path d="M14209 3503 c-13 -16 -12 -17 4 -4 16 13 21 21 13 21 -2 0 -10 -8
-17 -17z"/>
</g>
</svg>
