<?xml version="1.0" standalone="no"?>
<!DOCTYPE svg PUBLIC "-//W3C//DTD SVG 20010904//EN"
 "http://www.w3.org/TR/2001/REC-SVG-20010904/DTD/svg10.dtd">
<svg version="1.0" xmlns="http://www.w3.org/2000/svg"
 width="1122.000000pt" height="1122.000000pt" viewBox="0 0 1122.000000 1122.000000"
 preserveAspectRatio="xMidYMid meet">
<metadata>
Created by potrace 1.11, written by Peter Selinger 2001-2013
</metadata>
<g transform="translate(0.000000,1122.000000) scale(0.100000,-0.100000)"
fill="#000000" stroke="none">
<path d="M7857 11187 c4 -6 0 -8 -9 -4 -9 3 -19 3 -23 -1 -6 -7 -10 -8 -36
-11 -5 0 -8 -5 -5 -10 3 -5 0 -9 -7 -8 -35 1 -48 -4 -41 -15 5 -8 1 -8 -12 2
-10 8 -16 10 -11 5 8 -9 -63 -46 -75 -39 -4 3 -5 -3 -1 -12 4 -12 3 -15 -5
-10 -7 4 -12 2 -12 -4 0 -6 -4 -8 -10 -5 -5 3 -10 1 -10 -5 0 -6 -11 -15 -25
-20 -14 -5 -24 -15 -23 -22 2 -8 -5 -12 -16 -10 -10 2 -15 -1 -12 -7 4 -5 -3
-15 -14 -21 -11 -6 -18 -15 -15 -21 4 -5 2 -9 -4 -9 -5 0 -13 -9 -16 -20 -4
-11 -10 -18 -15 -15 -11 7 -7 -29 5 -37 6 -4 1 -8 -10 -8 -18 -1 -19 -1 -2
-11 14 -8 15 -14 6 -31 -8 -15 -8 -19 0 -14 6 4 11 1 11 -8 0 -8 -4 -17 -10
-21 -5 -3 -6 -13 -3 -22 4 -10 2 -14 -4 -10 -13 8 -11 -66 2 -75 6 -5 4 -8 -5
-8 -13 0 -13 -1 0 -10 11 -7 11 -10 2 -10 -7 0 -10 -5 -7 -11 12 -18 13 -59 1
-59 -6 0 -4 -5 4 -10 11 -7 11 -10 2 -10 -7 0 -10 -4 -7 -10 3 -5 0 -10 -7
-10 -9 0 -9 -3 2 -10 8 -5 11 -10 6 -10 -5 0 -2 -8 5 -17 12 -14 12 -15 0 -9
-10 7 -12 3 -6 -14 6 -17 4 -21 -6 -14 -10 6 -10 3 1 -11 12 -15 12 -17 1 -10
-11 6 -13 3 -7 -18 3 -14 2 -27 -4 -29 -6 -2 -4 -14 4 -30 12 -23 12 -26 -1
-21 -13 5 -13 3 -4 -15 10 -19 9 -22 -6 -23 -12 0 -14 -2 -4 -6 11 -5 11 -7 0
-14 -10 -6 -11 -9 -1 -9 6 0 12 -5 12 -11 0 -5 -5 -7 -11 -3 -8 5 -8 1 0 -13
7 -14 7 -23 -1 -31 -8 -8 -7 -16 3 -28 8 -10 9 -15 3 -11 -16 9 -25 -18 -11
-32 8 -8 8 -11 -1 -11 -7 0 -12 -5 -12 -11 0 -5 6 -7 13 -4 6 4 3 -1 -7 -9
-13 -10 -15 -16 -7 -16 11 0 11 -3 0 -17 -12 -15 -12 -16 1 -8 13 7 13 6 2 -7
-10 -13 -10 -17 0 -21 8 -4 7 -6 -4 -6 -10 -1 -18 -6 -18 -12 0 -5 4 -7 10 -4
6 3 7 -1 4 -9 -3 -9 -10 -16 -16 -16 -5 0 -6 -5 -3 -10 4 -6 11 -7 17 -4 5 4
2 -5 -7 -20 -14 -20 -14 -26 -4 -26 10 -1 10 -3 -2 -10 -11 -6 -15 -18 -11
-35 3 -17 0 -25 -9 -25 -12 0 -12 -2 0 -9 9 -6 10 -11 2 -15 -15 -10 -14 -29
2 -21 6 4 4 0 -6 -8 -14 -11 -15 -16 -5 -20 10 -4 10 -6 -1 -6 -10 -1 -11 -4
-2 -15 9 -11 9 -16 0 -22 -8 -5 -9 -3 -4 6 5 9 4 11 -3 6 -7 -4 -9 -17 -6 -30
4 -16 0 -25 -9 -29 -10 -4 -13 -13 -10 -26 3 -13 1 -21 -8 -21 -8 0 -5 -6 7
-15 14 -11 15 -14 3 -9 -10 3 -20 0 -25 -7 -4 -8 -3 -10 4 -5 7 4 12 3 12 -3
0 -5 -5 -13 -11 -17 -8 -4 -7 -9 2 -15 10 -6 11 -9 2 -9 -7 0 -13 -11 -13 -24
0 -14 -4 -28 -10 -31 -15 -9 -12 -27 3 -20 6 4 3 -1 -7 -9 -15 -12 -16 -16 -5
-16 12 0 12 -2 -1 -10 -14 -9 -20 -30 -21 -72 0 -10 -5 -20 -10 -23 -5 -4 -7
-11 -4 -16 4 -5 1 -9 -5 -9 -6 0 -8 -4 -5 -10 3 -5 -1 -20 -9 -32 -11 -15 -12
-25 -5 -34 7 -8 6 -15 -2 -20 -8 -5 -10 -3 -4 7 5 8 4 11 -1 6 -5 -5 -9 -12
-9 -15 0 -4 -4 -13 -9 -21 -6 -10 -5 -12 2 -7 17 10 15 -3 -3 -21 -8 -8 -13
-19 -10 -24 4 -5 2 -9 -3 -9 -6 0 -10 -6 -9 -12 1 -36 -4 -49 -15 -42 -8 5 -7
0 2 -11 8 -10 10 -16 4 -12 -7 4 -15 0 -18 -9 -3 -8 -2 -12 4 -9 6 3 7 -1 4
-9 -3 -9 -10 -16 -15 -16 -6 0 -4 -10 2 -22 11 -20 10 -21 -2 -11 -12 10 -15
7 -17 -15 -1 -14 -6 -30 -12 -36 -6 -6 -5 -16 1 -29 7 -12 7 -17 1 -13 -11 7
-26 -22 -23 -43 1 -7 -2 -10 -8 -6 -6 3 -11 1 -11 -4 0 -6 6 -11 13 -11 6 0 4
-5 -7 -11 -15 -9 -16 -13 -5 -20 11 -7 11 -9 -2 -9 -10 0 -16 -7 -15 -17 0
-10 -4 -17 -10 -16 -7 1 -11 -5 -10 -15 0 -10 -5 -16 -14 -13 -8 2 -25 3 -37
3 -13 0 -20 4 -17 9 5 9 -8 13 -38 10 -9 -1 -20 3 -24 10 -5 8 -3 9 6 4 9 -5
11 -4 6 4 -6 9 -11 9 -21 1 -9 -8 -17 -6 -29 5 -12 12 -16 13 -16 3 0 -9 -3
-9 -8 -2 -4 6 -15 12 -24 12 -42 4 -48 6 -48 13 0 5 -7 6 -15 3 -8 -4 -15 -1
-15 5 0 6 -7 8 -15 5 -9 -4 -15 0 -15 7 0 11 -3 11 -10 -1 -8 -12 -10 -12 -10
-1 0 8 -3 11 -7 8 -3 -4 -13 -1 -21 6 -11 8 -13 8 -9 0 5 -7 0 -9 -13 -6 -11
3 -18 8 -16 12 2 3 -7 7 -20 7 -15 1 -21 -2 -17 -10 8 -12 -28 13 -39 29 -5 6
-8 6 -8 -1 0 -6 -7 -11 -15 -11 -8 0 -12 5 -8 10 3 5 -3 6 -16 2 -14 -4 -21
-2 -21 7 0 10 -3 9 -10 -2 -7 -11 -10 -11 -10 -2 0 10 -5 10 -22 1 -21 -11
-22 -11 -9 4 9 11 10 17 2 17 -6 0 -11 5 -11 11 0 5 6 7 13 3 8 -6 8 -3 -1 9
-8 9 -10 22 -6 28 4 7 3 9 -4 5 -6 -3 -13 -2 -17 4 -3 5 -1 10 6 10 8 0 7 5
-2 17 -12 15 -12 16 1 8 12 -6 13 -5 3 6 -7 7 -13 23 -13 36 0 13 -5 23 -10
23 -6 0 -9 3 -9 8 1 4 1 18 0 32 -1 20 -3 22 -11 10 -6 -9 -10 -10 -10 -3 0 6
5 15 10 18 7 4 7 13 0 24 -6 12 -5 22 3 30 9 10 8 11 -6 5 -13 -5 -16 -2 -10
12 4 10 2 15 -4 11 -5 -3 -10 -1 -11 6 0 7 -2 29 -3 49 -1 21 -6 35 -11 32 -4
-3 -8 2 -8 11 0 10 -5 13 -12 9 -9 -5 -9 -2 1 9 11 14 11 20 1 32 -7 8 -9 15
-5 15 5 0 0 10 -11 22 -10 12 -13 18 -6 14 6 -4 12 -2 12 3 0 6 -5 11 -11 11
-5 0 -8 4 -4 9 3 5 1 12 -5 16 -6 4 -8 11 -5 16 4 5 1 9 -5 9 -6 0 -8 5 -5 11
4 6 -1 17 -11 25 -11 9 -13 13 -6 9 18 -9 15 6 -5 22 -12 10 -13 12 -3 8 9 -4
8 -1 -3 8 -12 10 -14 17 -8 22 15 9 14 26 -1 23 -7 -2 -12 4 -13 12 -1 8 -6
14 -11 13 -6 -1 -9 11 -6 28 3 21 0 29 -11 29 -19 0 -29 24 -15 38 8 8 6 14
-10 19 -11 4 -21 11 -21 16 -1 4 -1 16 -1 27 0 14 -7 20 -22 21 -13 0 -17 3
-10 6 6 2 12 11 12 19 0 9 -4 12 -10 9 -5 -3 -10 3 -10 13 0 11 -7 22 -15 26
-8 3 -15 14 -15 25 0 11 -11 31 -24 44 -14 14 -22 28 -19 31 4 3 1 6 -6 6 -7
0 -9 5 -5 13 5 8 2 7 -9 -2 -15 -12 -17 -12 -11 2 7 18 -19 50 -32 39 -5 -4
-2 2 6 12 8 11 10 17 4 13 -7 -4 -17 -1 -23 7 -9 11 -9 15 1 19 8 3 6 6 -5 6
-12 1 -16 6 -11 14 4 6 3 9 -1 4 -10 -9 -55 31 -55 49 0 7 -13 17 -30 22 -20
7 -28 16 -24 25 3 10 -4 17 -20 21 -14 3 -25 11 -23 18 1 6 -10 12 -24 13 -14
1 -32 5 -39 10 -9 5 -11 4 -6 -4 4 -6 1 -14 -7 -17 -9 -3 -13 -13 -10 -25 3
-10 10 -16 16 -12 6 4 7 1 2 -6 -4 -8 2 -21 14 -32 12 -11 19 -24 16 -30 -4
-5 1 -9 10 -9 9 0 13 -4 10 -10 -3 -5 -2 -10 3 -10 6 0 13 -11 16 -25 4 -14
11 -25 17 -25 6 0 7 -4 4 -10 -3 -5 -1 -10 5 -10 6 0 8 -4 5 -10 -7 -12 19
-53 28 -44 3 3 3 -4 0 -17 -4 -15 -3 -20 5 -15 7 4 12 2 12 -3 0 -6 -5 -11
-12 -11 -6 0 -4 -6 7 -13 10 -8 15 -19 11 -25 -4 -7 -2 -12 4 -12 7 0 10 -6 7
-14 -3 -8 1 -17 8 -20 8 -3 12 -12 9 -21 -3 -8 -2 -15 3 -15 5 0 8 -13 7 -30
-1 -21 3 -30 13 -30 8 0 11 -5 8 -10 -4 -6 -11 -7 -18 -3 -6 3 -2 -7 9 -23 11
-16 21 -42 22 -58 1 -16 8 -36 15 -44 9 -13 9 -14 0 -8 -7 4 -13 2 -13 -3 0
-6 4 -11 9 -11 5 0 12 -7 15 -16 3 -8 2 -12 -4 -9 -15 9 -12 -8 5 -32 10 -15
12 -24 5 -28 -8 -5 -7 -11 1 -21 9 -11 8 -18 -2 -31 -12 -14 -12 -16 2 -11 12
5 15 -1 12 -31 -2 -25 2 -40 14 -48 9 -7 12 -13 5 -13 -8 0 -9 -7 -2 -25 5
-14 6 -25 2 -25 -4 0 0 -5 8 -10 10 -6 11 -10 2 -10 -14 0 -12 -21 3 -32 6 -5
4 -8 -5 -8 -12 0 -12 -2 -2 -9 17 -10 22 -69 8 -75 -6 -2 -5 -5 2 -5 7 -1 10
-5 7 -11 -3 -5 -2 -10 3 -10 6 0 13 -7 16 -16 3 -8 2 -12 -4 -9 -14 9 -12 -8
3 -24 10 -12 9 -13 -7 -7 -16 5 -17 4 -7 -8 7 -8 11 -23 9 -33 -2 -10 3 -24
12 -31 13 -11 13 -11 -3 -6 -13 5 -16 2 -11 -10 3 -9 11 -16 18 -16 7 0 6 -4
-2 -9 -8 -4 -13 -11 -13 -15 1 -5 -4 -8 -11 -5 -9 3 -67 10 -87 9 -13 0 -30 5
-37 11 -10 8 -11 5 -8 -13 5 -19 4 -20 -5 -6 -7 10 -19 14 -33 11 -19 -4 -20
-3 -8 6 12 9 10 11 -10 8 -14 -1 -31 -6 -39 -11 -9 -6 -12 -5 -8 1 5 7 -9 10
-41 9 -26 -1 -59 1 -74 5 -19 5 -28 4 -28 -4 0 -7 -4 -6 -9 2 -8 12 -12 12
-24 2 -12 -9 -16 -9 -20 1 -4 9 -6 10 -6 1 -1 -7 -8 -10 -16 -7 -8 4 -12 11
-8 18 3 6 -6 0 -22 -14 -16 -14 -25 -20 -21 -13 12 22 -41 39 -56 18 -5 -6 -8
-5 -8 3 0 6 -7 12 -16 12 -9 0 -12 -5 -8 -12 6 -10 5 -10 -7 -1 -11 9 -19 9
-26 2 -8 -8 -13 -8 -17 0 -5 8 -13 8 -28 0 -18 -10 -20 -9 -14 6 5 14 4 16 -7
7 -8 -7 -17 -9 -20 -5 -4 3 -14 0 -24 -8 -11 -9 -14 -10 -9 -1 9 16 -6 16 -22
0 -9 -9 -15 -9 -20 -2 -9 13 -52 16 -52 3 0 -6 -4 -8 -9 -5 -5 4 -12 0 -14 -6
-4 -10 -6 -10 -6 0 -1 8 -7 10 -18 5 -10 -5 -31 -7 -48 -6 -76 8 -130 5 -128
-5 2 -6 -4 -9 -12 -6 -8 4 -12 11 -8 18 4 6 -1 5 -10 -3 -14 -11 -20 -11 -34
0 -14 12 -16 12 -8 0 6 -11 3 -13 -13 -9 -11 3 -31 -1 -43 -10 -12 -8 -19 -10
-15 -4 4 7 1 12 -9 12 -10 0 -13 -5 -9 -12 5 -7 3 -8 -7 -3 -18 11 -80 7 -96
-7 -10 -8 -13 -7 -13 3 0 12 -2 12 -9 0 -7 -11 -9 -11 -14 0 -5 12 -6 12 -6 0
-1 -11 -4 -11 -16 -1 -8 7 -15 8 -15 2 0 -5 -11 -12 -25 -14 -13 -3 -22 -1
-19 3 3 5 0 9 -5 9 -6 0 -11 -4 -11 -8 0 -5 -21 -8 -46 -7 -25 0 -48 -3 -50
-7 -3 -4 -16 -8 -30 -8 -14 0 -35 -5 -46 -11 -15 -8 -18 -8 -14 0 5 7 1 9 -8
5 -9 -3 -16 -11 -16 -17 0 -8 -3 -8 -11 0 -8 8 -21 7 -46 -3 -27 -12 -33 -12
-27 -2 6 10 5 10 -7 2 -8 -6 -21 -11 -29 -11 -24 -1 -44 -7 -52 -18 -5 -6 -8
-4 -8 4 0 11 -4 9 -15 -5 -15 -19 -15 -19 -9 1 6 16 5 18 -7 8 -7 -7 -21 -13
-32 -13 -10 0 -15 -4 -12 -10 4 -7 -3 -7 -20 0 -17 7 -24 7 -20 0 7 -11 -4
-13 -49 -10 -20 1 -26 -2 -21 -10 5 -9 1 -10 -13 -6 -11 4 -23 2 -27 -4 -5 -8
-11 -8 -21 1 -11 9 -15 8 -20 -5 -3 -9 -10 -13 -16 -10 -5 3 -16 -2 -24 -12
-9 -11 -13 -13 -9 -6 4 7 0 12 -9 12 -8 0 -16 -4 -18 -9 -3 -10 -46 -22 -86
-25 -13 0 -20 -6 -17 -14 3 -10 0 -10 -15 -2 -16 9 -22 8 -26 -5 -3 -8 -10
-12 -15 -10 -4 3 -26 -3 -48 -13 -28 -14 -42 -16 -45 -8 -2 6 -5 3 -5 -7 -1
-10 -6 -15 -11 -12 -6 4 -17 1 -25 -5 -8 -6 -19 -9 -25 -5 -5 3 -10 -2 -10
-12 0 -15 -2 -16 -10 -3 -5 8 -10 10 -10 4 0 -11 -35 -28 -52 -25 -5 1 -8 -4
-8 -10 0 -8 -5 -7 -15 1 -13 11 -14 10 -9 -5 6 -15 4 -16 -14 -6 -18 10 -21 9
-16 -4 4 -9 3 -15 -2 -14 -20 3 -35 -2 -30 -10 4 -5 -3 -7 -14 -4 -15 4 -20 0
-21 -13 0 -11 -3 -13 -6 -7 -3 10 -8 9 -20 -2 -8 -8 -23 -15 -34 -15 -11 0
-17 -4 -14 -10 5 -9 -15 -15 -37 -11 -5 0 -8 -5 -8 -13 0 -8 -8 -13 -17 -12
-11 0 -17 -5 -15 -13 3 -12 0 -12 -12 -1 -11 9 -16 9 -16 1 0 -6 -12 -16 -26
-21 -14 -6 -23 -14 -19 -19 3 -6 -6 -8 -21 -5 -15 3 -23 1 -20 -5 4 -5 -3 -12
-14 -16 -11 -4 -17 -11 -14 -17 5 -7 1 -9 -9 -5 -10 3 -17 2 -17 -4 0 -6 -4
-8 -9 -5 -5 3 -11 -1 -15 -9 -3 -8 -14 -15 -23 -15 -22 0 -54 -35 -45 -46 4
-5 -2 -2 -12 6 -13 10 -17 10 -12 2 5 -8 -2 -16 -19 -22 -14 -5 -24 -14 -21
-18 2 -4 -5 -9 -16 -9 -22 -2 -40 -22 -32 -35 3 -4 -2 -5 -11 -1 -11 4 -25 -3
-39 -20 -13 -15 -26 -24 -30 -20 -3 3 -6 1 -6 -5 0 -7 -7 -12 -16 -12 -8 0
-12 -4 -9 -10 6 -10 -9 -15 -30 -10 -5 1 -7 -1 -3 -5 11 -11 -20 -37 -34 -29
-7 4 -10 4 -6 0 8 -10 -32 -57 -43 -50 -4 2 -13 -5 -19 -16 -6 -11 -15 -18
-21 -15 -5 4 -9 0 -9 -8 0 -8 -7 -18 -16 -21 -9 -3 -12 -11 -8 -18 5 -8 0 -7
-11 2 -11 9 -16 10 -11 3 4 -7 3 -13 -3 -13 -6 0 -17 -12 -25 -27 -8 -16 -15
-22 -16 -14 0 17 -15 5 -15 -12 -1 -7 -7 -11 -14 -9 -7 1 -10 -1 -7 -6 7 -11
-30 -42 -40 -34 -4 4 -4 2 0 -5 8 -14 -33 -45 -48 -36 -6 4 -5 -1 3 -10 12
-15 12 -17 -4 -11 -11 4 -16 3 -13 -2 4 -5 -1 -18 -9 -29 -13 -17 -15 -17 -9
-2 3 11 2 16 -4 12 -6 -3 -10 -13 -10 -21 0 -8 -8 -14 -17 -14 -15 0 -16 -2
-3 -10 13 -8 13 -10 -2 -10 -10 0 -22 -9 -28 -20 -6 -12 -16 -18 -23 -14 -7 4
-9 4 -5 -1 4 -4 0 -14 -8 -22 -8 -8 -12 -19 -8 -24 3 -5 0 -8 -8 -7 -7 2 -12
-2 -11 -9 2 -8 -4 -10 -14 -6 -11 4 -14 3 -9 -5 4 -7 1 -15 -8 -18 -9 -3 -16
-13 -16 -21 0 -8 -5 -11 -12 -7 -8 5 -9 2 -5 -9 4 -10 2 -16 -6 -14 -7 1 -11
-4 -9 -12 3 -12 1 -12 -14 0 -10 8 -15 9 -11 2 4 -6 1 -14 -5 -16 -10 -4 -9
-6 1 -6 9 -1 4 -10 -13 -26 -15 -14 -25 -25 -22 -25 4 0 -2 -9 -12 -20 -9 -11
-25 -29 -35 -40 -10 -12 -15 -26 -11 -32 4 -7 3 -8 -4 -4 -7 4 -12 1 -12 -8 0
-9 -5 -16 -11 -16 -5 0 -7 -4 -4 -10 3 -5 0 -7 -9 -4 -11 4 -14 -1 -12 -20 3
-21 0 -24 -14 -16 -12 7 -18 6 -17 -3 1 -34 -4 -46 -17 -41 -10 4 -14 0 -12
-12 2 -10 -10 -30 -25 -45 -15 -15 -24 -31 -20 -35 3 -5 5 -8 2 -7 -9 5 -31
-28 -25 -38 4 -8 3 -9 -4 -5 -11 7 -17 -6 -13 -28 1 -5 -5 -6 -13 -3 -11 4
-13 1 -9 -10 5 -12 3 -14 -8 -8 -11 7 -11 5 1 -10 8 -10 10 -16 4 -12 -7 4
-15 0 -18 -9 -3 -8 -11 -12 -17 -8 -7 4 -9 3 -5 -4 3 -6 2 -13 -4 -17 -5 -3
-10 -15 -10 -26 0 -10 -5 -19 -11 -19 -6 0 -9 -7 -5 -15 3 -9 0 -15 -9 -15 -8
0 -15 -5 -15 -11 0 -5 6 -7 13 -4 6 4 0 -3 -15 -15 -16 -12 -28 -27 -28 -33 0
-6 7 -2 16 9 15 18 15 18 5 -3 -6 -12 -16 -24 -23 -26 -10 -4 -10 -6 0 -6 10
-1 10 -4 0 -15 -7 -8 -17 -11 -23 -8 -5 3 -3 -3 5 -13 12 -15 12 -17 1 -10
-11 6 -13 4 -8 -9 4 -10 3 -15 -3 -11 -6 3 -10 1 -10 -5 0 -6 -4 -8 -10 -5 -6
3 -7 -1 -4 -10 4 -8 1 -22 -6 -30 -6 -8 -9 -19 -5 -25 4 -6 3 -10 -2 -9 -20 3
-27 -2 -13 -11 12 -8 12 -10 -5 -10 -17 0 -17 -2 -5 -10 12 -8 12 -10 -5 -10
-15 0 -17 -3 -7 -9 11 -6 9 -9 -6 -13 -13 -4 -19 -13 -18 -29 1 -13 -6 -31
-14 -39 -9 -8 -10 -11 -3 -6 10 6 12 4 7 -8 -3 -9 -10 -16 -14 -16 -4 0 -11
-7 -14 -16 -3 -9 -2 -12 5 -8 6 3 5 -3 -3 -15 -7 -12 -16 -21 -20 -21 -5 0 -8
-5 -8 -11 0 -5 6 -7 13 -3 6 4 4 -2 -6 -14 -11 -11 -16 -26 -12 -31 3 -6 1
-11 -4 -11 -6 0 -11 -6 -11 -14 0 -7 -7 -19 -15 -26 -10 -8 -12 -17 -6 -28 6
-11 4 -20 -7 -30 -12 -9 -12 -11 -2 -6 13 7 13 5 2 -9 -8 -9 -11 -21 -7 -27 3
-5 2 -10 -4 -10 -6 0 -7 -8 -4 -17 5 -12 2 -15 -8 -11 -16 6 -19 -28 -5 -50 4
-8 3 -11 -5 -10 -6 2 -14 -3 -17 -11 -3 -10 0 -11 9 -5 12 6 12 5 0 -9 -8 -10
-11 -20 -8 -24 4 -3 -1 -12 -11 -20 -10 -9 -11 -11 -2 -7 12 6 13 5 3 -7 -10
-12 -10 -18 0 -29 10 -10 9 -11 -2 -5 -11 6 -13 4 -8 -8 4 -10 2 -17 -5 -17
-6 0 -5 -6 3 -17 8 -9 9 -14 3 -10 -7 4 -14 0 -18 -8 -3 -8 0 -15 6 -15 9 0 9
-3 1 -11 -6 -6 -9 -18 -6 -25 3 -9 -2 -14 -13 -14 -17 0 -16 -1 2 -15 13 -10
15 -14 5 -15 -8 0 -11 -3 -8 -7 4 -3 1 -13 -6 -21 -6 -9 -7 -13 -1 -9 6 3 11
0 11 -8 0 -8 -4 -12 -8 -10 -14 9 -17 -34 -3 -53 13 -18 12 -20 -9 -15 -16 3
-18 2 -8 -5 7 -5 9 -12 4 -15 -11 -7 -11 -37 2 -56 6 -10 4 -12 -5 -6 -9 6
-12 -1 -8 -28 2 -20 1 -34 -3 -31 -4 2 -9 -3 -13 -11 -3 -8 0 -15 7 -15 8 0 8
-3 -2 -9 -10 -6 -10 -10 -1 -16 9 -6 9 -10 -1 -16 -12 -7 -12 -9 0 -9 11 0 11
-3 1 -15 -6 -8 -9 -19 -5 -25 3 -5 1 -10 -6 -10 -7 0 -9 -3 -6 -7 4 -3 1 -13
-6 -21 -9 -12 -9 -14 0 -9 9 6 11 -2 9 -27 -2 -19 -7 -39 -10 -45 -4 -6 -2
-11 5 -11 10 0 10 -3 1 -12 -8 -8 -8 -17 0 -31 8 -16 7 -19 -3 -15 -11 4 -14
-7 -14 -47 0 -30 3 -57 8 -61 4 -4 0 -15 -9 -25 -12 -13 -12 -19 -3 -25 8 -5
10 -3 4 6 -6 9 -4 11 4 6 9 -6 9 -12 -2 -24 -8 -10 -14 -24 -14 -32 0 -8 -2
-19 -3 -25 -5 -21 1 -36 12 -29 7 5 8 3 2 -7 -14 -22 -14 -120 -1 -112 7 4 6
-1 -2 -10 -7 -9 -10 -17 -6 -17 4 0 1 -8 -6 -17 -8 -9 -9 -14 -3 -10 7 4 14 0
18 -8 3 -8 0 -17 -6 -21 -7 -5 -8 -2 -3 6 6 9 4 11 -4 6 -9 -6 -8 -13 6 -29
10 -11 13 -17 7 -14 -7 4 -15 0 -18 -9 -3 -8 -2 -13 3 -10 5 3 11 -1 15 -9 3
-8 0 -17 -6 -21 -7 -5 -8 -2 -3 6 6 9 4 11 -4 6 -9 -6 -8 -13 6 -29 10 -11 13
-18 7 -14 -7 4 -11 -8 -11 -38 0 -24 3 -42 7 -40 4 2 7 -2 7 -10 0 -8 -5 -12
-10 -8 -5 3 -6 -4 -2 -17 5 -15 4 -20 -4 -16 -16 10 -13 0 5 -18 12 -12 12
-16 2 -16 -10 0 -9 -3 2 -10 12 -7 13 -13 4 -28 -9 -14 -8 -22 2 -37 12 -16
12 -22 -2 -43 -10 -15 -11 -21 -3 -17 9 6 11 2 7 -13 -4 -13 0 -23 9 -26 11
-5 12 -10 2 -27 -7 -14 -7 -24 -1 -28 5 -3 8 -17 7 -31 -1 -14 2 -33 7 -44 7
-12 7 -16 0 -12 -5 3 -13 -1 -16 -10 -3 -8 -2 -12 4 -9 6 3 10 -3 10 -14 0
-12 5 -21 12 -21 6 0 4 -6 -7 -13 -14 -11 -15 -16 -5 -22 9 -6 11 -4 5 5 -5 9
-4 11 4 6 9 -6 9 -11 1 -21 -8 -9 -8 -15 0 -20 5 -3 10 -17 10 -31 0 -13 5
-24 12 -24 6 0 4 -6 -7 -13 -14 -11 -15 -16 -5 -22 9 -6 11 -4 5 6 -5 8 -4 11
0 6 9 -8 12 -25 16 -85 2 -25 6 -31 18 -27 12 5 11 2 -3 -14 -13 -14 -14 -21
-5 -27 8 -5 10 -3 4 6 -5 8 -4 11 2 7 6 -4 8 -18 5 -32 -3 -16 0 -25 8 -25 9
0 10 -3 1 -13 -7 -9 -7 -17 0 -24 5 -5 11 -26 12 -46 1 -21 5 -37 10 -37 4 0
7 -16 7 -35 0 -21 5 -35 12 -35 9 0 9 -3 1 -11 -9 -9 -8 -16 3 -27 8 -8 13
-21 10 -28 -3 -8 0 -14 7 -14 9 0 8 -3 -1 -9 -11 -7 -10 -9 3 -15 9 -3 13 -10
10 -16 -3 -5 -1 -10 4 -10 6 0 10 -3 10 -8 -5 -28 3 -62 12 -57 6 4 10 1 8 -6
-3 -29 1 -50 11 -44 6 3 7 -1 4 -10 -4 -8 -1 -21 5 -29 6 -7 8 -16 4 -19 -3
-4 -1 -7 6 -7 7 0 9 -4 6 -10 -3 -5 -1 -10 4 -10 6 0 11 -5 11 -11 0 -5 -4 -7
-10 -4 -6 3 -7 -1 -4 -9 3 -9 10 -16 15 -16 5 0 9 -11 9 -25 0 -17 7 -29 23
-35 20 -8 20 -9 2 -10 -16 0 -17 -2 -6 -9 8 -5 16 -20 18 -33 2 -13 8 -25 13
-26 6 -2 8 -8 4 -13 -3 -5 0 -9 6 -9 6 0 9 -4 6 -9 -3 -4 2 -17 10 -27 9 -10
12 -13 8 -5 -5 10 -3 12 5 6 9 -5 10 -10 2 -18 -8 -8 -4 -18 12 -36 12 -13 16
-21 9 -17 -6 4 -12 2 -12 -3 0 -6 7 -11 16 -11 8 0 12 -5 9 -10 -3 -6 0 -10 7
-10 10 0 10 -2 1 -8 -9 -6 -7 -12 7 -22 15 -11 17 -17 7 -29 -6 -9 -7 -13 -3
-9 12 10 35 -22 36 -49 0 -14 6 -23 15 -23 14 0 19 -12 16 -32 0 -5 4 -8 11
-8 6 0 8 -3 4 -7 -3 -4 4 -13 16 -21 14 -8 16 -11 5 -8 -11 3 -15 2 -12 -4 3
-6 14 -10 23 -10 13 0 14 -2 3 -9 -10 -6 -10 -10 -1 -16 6 -4 9 -13 6 -21 -3
-8 0 -13 7 -11 7 1 11 -4 9 -10 -1 -7 2 -13 8 -13 5 0 10 -5 10 -10 0 -6 9
-20 20 -32 18 -19 25 -38 21 -60 0 -4 5 -5 13 -2 8 3 17 0 22 -7 5 -8 3 -10
-5 -4 -9 5 -9 1 1 -14 7 -12 16 -21 19 -21 4 0 9 -9 12 -20 4 -14 11 -18 24
-14 14 5 15 4 3 -4 -12 -9 -11 -14 8 -30 16 -14 19 -22 10 -25 -8 -3 -6 -6 5
-6 10 -1 15 -5 12 -11 -3 -5 -1 -10 4 -10 6 0 11 -7 11 -15 0 -8 5 -15 11 -15
5 0 8 -4 5 -9 -3 -5 5 -17 19 -27 13 -10 22 -21 19 -26 -3 -4 3 -8 13 -8 15 0
16 -2 3 -10 -13 -8 -13 -10 2 -10 11 0 15 -5 12 -15 -5 -11 -2 -13 9 -9 12 4
15 1 12 -14 -3 -18 12 -33 37 -36 3 -1 10 -5 15 -10 5 -5 3 -6 -5 -2 -6 4 -12
2 -12 -3 0 -6 8 -11 17 -11 9 0 13 -3 10 -6 -4 -4 2 -14 13 -24 10 -9 20 -23
22 -31 3 -16 39 -45 51 -41 7 2 11 -13 8 -30 0 -5 4 -8 10 -8 5 0 7 -4 4 -10
-3 -5 1 -10 10 -10 9 0 13 -4 10 -10 -3 -6 1 -10 10 -10 10 0 13 -5 9 -12 -5
-8 -2 -9 11 -4 15 5 16 4 6 -8 -9 -11 -9 -16 0 -22 8 -5 10 -3 5 7 -4 8 -1 6
7 -3 8 -10 20 -18 26 -18 7 0 9 -5 6 -10 -3 -5 -1 -10 4 -10 6 0 10 -5 9 -12
-2 -7 3 -12 11 -13 8 0 22 -14 31 -30 10 -17 23 -29 30 -27 6 1 9 -2 5 -8 -3
-5 -1 -10 5 -10 6 0 8 -4 5 -10 -3 -5 3 -10 14 -10 19 0 26 -10 22 -32 0 -5 4
-8 10 -8 14 0 39 -26 39 -40 0 -6 5 -8 10 -5 6 3 10 1 10 -5 0 -6 5 -8 10 -5
5 3 10 -1 10 -9 0 -9 7 -13 19 -11 14 3 18 -1 14 -11 -3 -9 1 -14 12 -14 9 0
13 -5 10 -10 -3 -6 -1 -10 5 -10 6 0 9 -4 6 -8 -2 -4 9 -14 24 -21 16 -7 28
-16 27 -21 -1 -4 0 -8 3 -7 10 2 60 -47 60 -59 0 -8 6 -11 14 -8 8 3 19 -3 26
-15 6 -12 20 -21 31 -21 15 0 19 -5 15 -16 -3 -8 -2 -12 4 -9 6 3 10 1 10 -4
0 -6 7 -11 16 -11 8 0 13 -4 10 -9 -3 -5 3 -11 14 -14 11 -3 19 -11 18 -19 -2
-8 6 -13 19 -12 12 0 20 -3 17 -8 -3 -4 2 -8 11 -8 8 0 18 -7 21 -15 3 -8 14
-17 25 -20 11 -4 16 -11 13 -17 -5 -7 -1 -9 9 -5 11 4 14 2 11 -8 -4 -10 0
-13 14 -10 14 2 22 -3 25 -17 4 -13 11 -19 21 -15 9 4 23 -3 34 -18 14 -17 22
-21 30 -13 8 8 9 5 5 -11 -4 -17 -1 -21 16 -21 13 0 19 -4 16 -10 -4 -6 -3
-10 2 -9 22 4 43 -2 38 -11 -6 -9 8 -14 28 -11 4 0 7 -3 7 -9 0 -5 7 -10 15
-10 9 0 18 -7 22 -16 5 -13 7 -13 14 -2 7 10 9 9 9 -3 0 -19 26 -33 42 -22 6
3 8 1 5 -4 -4 -6 1 -17 10 -24 14 -12 16 -12 9 1 -4 8 1 5 11 -8 15 -18 21
-20 32 -10 11 10 12 10 7 1 -5 -8 -1 -13 9 -13 9 0 13 -5 10 -10 -4 -6 -3 -10
2 -9 4 1 11 0 16 -1 4 -1 13 -3 20 -4 6 0 13 -7 13 -13 3 -24 4 -25 19 -13 12
10 15 10 15 -3 0 -11 5 -14 17 -10 11 5 14 3 8 -6 -6 -10 -2 -11 15 -6 15 5
20 4 16 -4 -4 -6 -2 -11 4 -11 6 0 8 -5 4 -12 -4 -6 -3 -8 3 -5 17 10 74 -13
66 -26 -4 -7 1 -6 11 2 15 12 17 12 14 0 -2 -8 3 -13 10 -11 6 1 12 -2 12 -8
0 -5 5 -10 11 -10 5 0 7 6 3 13 -8 12 17 -5 44 -31 12 -11 34 -16 55 -13 4 0
7 -7 7 -16 0 -15 2 -16 10 -3 7 11 10 11 10 2 0 -7 5 -10 10 -7 5 3 10 1 10
-5 0 -6 4 -8 10 -5 5 3 10 1 10 -6 0 -6 8 -9 20 -6 11 3 18 2 15 -2 -2 -5 7
-13 21 -20 20 -9 24 -9 18 1 -5 7 4 5 19 -5 15 -10 33 -15 40 -10 9 5 9 3 -1
-9 -11 -14 -9 -15 18 -13 16 1 30 -2 30 -7 0 -6 9 -8 20 -5 13 3 18 1 13 -6
-4 -6 2 -8 15 -5 14 4 20 2 15 -5 -4 -6 0 -8 11 -4 10 4 19 1 23 -9 3 -8 12
-13 19 -10 8 3 14 0 14 -6 0 -6 3 -8 7 -5 3 4 15 -1 26 -10 20 -17 20 -17 13
1 -6 19 -6 19 12 3 10 -9 22 -14 25 -11 4 4 9 0 13 -9 5 -13 10 -14 26 -6 15
8 19 8 14 0 -6 -10 20 -16 47 -12 4 0 7 -5 7 -12 0 -8 11 -12 30 -11 19 1 28
-2 23 -9 -4 -6 0 -8 10 -4 10 3 17 2 17 -3 0 -5 7 -7 15 -4 9 4 15 0 15 -7 0
-12 2 -12 9 0 7 12 12 11 30 -1 11 -8 18 -19 13 -24 -4 -4 1 -2 11 5 13 10 17
11 17 1 0 -10 3 -10 15 0 14 11 19 7 16 -13 -1 -4 8 -3 18 3 16 8 22 6 30 -7
8 -13 10 -14 11 -4 0 11 4 10 16 -5 8 -10 13 -13 9 -6 -3 6 -1 12 4 12 6 0 11
-4 11 -9 0 -12 39 -21 45 -10 3 4 12 6 20 3 8 -4 13 -9 10 -13 -2 -4 2 -8 10
-8 8 0 15 5 15 11 0 5 9 0 20 -12 21 -22 36 -30 26 -13 -10 15 22 21 34 6 6
-8 19 -11 27 -8 10 4 14 2 10 -4 -7 -11 22 -11 42 2 10 6 12 4 6 -5 -6 -10 -3
-12 13 -8 12 4 22 2 22 -4 0 -5 5 -6 10 -3 6 3 10 0 10 -7 0 -9 3 -9 10 2 7
12 12 12 22 2 6 -6 17 -12 23 -12 5 0 3 5 -5 10 -8 5 -10 10 -4 10 6 0 17 -6
23 -13 6 -8 21 -13 33 -12 13 1 29 -3 37 -9 12 -9 13 -8 6 3 -6 11 -4 13 7 8
9 -3 21 0 27 6 9 9 11 8 6 -3 -4 -12 3 -15 36 -15 22 0 43 -3 45 -6 2 -4 18
-4 34 1 19 6 32 5 36 -2 5 -7 2 -8 -6 -3 -8 5 -11 4 -6 -3 6 -10 49 -7 68 4 4
3 8 -3 8 -13 1 -17 2 -16 17 2 14 17 15 18 9 2 -6 -18 7 -18 287 -16 229 1
297 5 315 16 12 7 22 10 22 5 0 -4 9 -8 20 -8 11 0 20 3 20 7 0 13 43 18 63 7
14 -7 17 -7 13 1 -4 6 -2 11 3 11 6 0 11 -6 11 -12 0 -9 4 -8 10 2 5 8 10 11
10 6 0 -5 8 -2 17 5 15 12 16 12 8 -1 -6 -12 -5 -13 6 -2 17 16 32 16 23 -1
-5 -9 -4 -9 6 0 7 6 19 9 28 6 11 -5 13 -3 7 8 -8 12 -6 12 8 0 12 -10 17 -10
17 -2 0 8 8 10 19 6 11 -3 22 -1 26 5 3 5 11 10 16 10 6 0 7 -6 3 -12 -5 -9
-2 -8 9 1 10 8 20 11 23 8 3 -3 16 -2 29 3 15 6 27 4 35 -3 10 -9 11 -9 6 0
-3 6 -2 14 4 18 5 3 10 1 10 -6 0 -7 7 -4 16 7 8 10 13 13 9 7 -3 -7 -1 -13 4
-13 6 0 11 5 11 11 0 5 5 7 10 4 6 -4 18 -1 27 7 15 11 16 11 9 -7 -6 -18 -5
-17 17 3 16 15 27 20 32 13 3 -6 11 -11 16 -11 6 0 8 4 5 9 -3 5 1 11 9 15 8
3 15 0 15 -6 0 -7 4 -7 14 1 7 6 21 9 30 5 11 -4 16 -1 16 12 0 15 2 16 9 5 6
-10 10 -10 16 -1 6 9 9 9 16 -1 6 -11 9 -10 14 3 4 10 14 14 27 10 13 -3 19
-1 15 5 -4 7 5 10 23 8 17 -1 30 2 30 9 0 6 5 4 10 -4 7 -11 10 -11 10 -2 0 7
4 11 9 7 5 -3 12 3 14 12 4 16 5 16 6 1 1 -15 4 -15 31 -2 16 9 34 13 40 9 6
-3 13 0 16 9 3 8 12 12 19 10 7 -3 16 0 20 6 6 9 10 9 16 -1 7 -11 9 -10 9 4
0 10 4 16 9 13 14 -9 42 5 35 16 -4 6 2 5 14 -1 26 -14 35 -14 27 -1 -6 9 8
14 28 11 4 0 7 3 7 9 0 5 6 7 14 4 8 -3 17 0 21 6 6 9 10 9 16 -1 6 -10 9 -11
9 -1 0 6 8 12 19 12 10 0 24 7 31 15 7 8 16 12 21 9 5 -3 9 1 9 8 0 9 3 9 10
-2 9 -13 14 -8 11 12 0 4 11 5 24 2 14 -2 25 0 25 6 0 6 5 8 10 5 6 -3 10 -2
10 3 0 6 7 13 16 16 8 3 12 2 9 -4 -3 -6 1 -7 9 -4 9 3 13 11 9 17 -3 6 -1 7
6 3 6 -4 18 -3 25 3 7 6 22 9 34 6 15 -3 19 0 15 11 -4 11 1 14 21 10 15 -3
24 -1 21 5 -4 5 1 9 9 9 9 0 16 4 16 9 0 4 11 7 25 6 14 -2 23 1 19 6 -5 9 9
13 34 10 6 -1 12 3 12 10 0 6 7 9 15 5 8 -3 15 -1 15 5 0 6 6 7 13 3 7 -5 6 0
-3 11 -14 17 -14 18 9 6 13 -7 21 -9 17 -3 -3 5 1 13 10 16 24 9 36 7 28 -6
-4 -7 -3 -8 5 -4 6 4 8 12 5 18 -5 7 0 9 14 6 13 -4 20 -1 19 5 -1 6 5 11 13
12 8 1 14 7 12 15 -3 12 -1 12 9 3 9 -9 16 -7 31 10 11 12 17 17 14 11 -3 -6
1 -11 8 -11 8 0 12 6 9 14 -4 9 0 11 13 6 13 -5 15 -3 9 8 -8 12 -6 12 9 0 14
-12 17 -12 14 0 -2 8 7 15 20 17 13 2 20 8 16 14 -5 7 -1 9 9 5 10 -3 17 -2
17 3 0 6 3 9 8 9 20 -3 25 2 12 12 -12 8 -10 9 8 4 13 -4 22 -2 22 5 0 6 4 9
9 6 5 -3 12 1 15 10 4 10 14 14 26 11 11 -3 18 -1 14 4 -3 5 0 9 6 9 6 0 8 5
4 12 -5 8 0 9 14 6 12 -4 20 -2 16 3 -3 5 2 9 10 9 9 0 16 5 16 11 0 5 5 7 12
3 8 -5 9 -2 5 10 -5 14 -3 15 13 6 16 -9 18 -8 13 6 -4 11 -3 15 5 10 6 -3 13
-2 17 4 4 6 10 8 15 5 5 -3 11 4 15 15 3 11 11 20 16 20 6 0 7 -6 3 -12 -4 -7
3 -3 15 10 12 12 29 22 37 22 8 0 13 4 9 9 -3 5 -1 12 5 16 5 3 10 0 11 -7 0
-7 5 -2 10 11 6 14 15 21 24 18 8 -4 16 2 20 13 3 11 9 19 13 18 12 -4 53 23
48 31 -3 4 4 12 14 19 16 10 19 9 14 -6 -2 -9 1 -7 7 6 7 13 18 21 26 18 8 -4
11 -1 8 5 -4 6 3 13 15 16 12 3 19 11 16 19 -3 8 2 11 14 9 11 -2 23 1 26 7 5
7 2 8 -7 3 -8 -5 -1 5 15 22 16 17 35 29 43 26 7 -3 13 2 13 11 0 9 3 15 8 15
21 -4 32 2 26 13 -5 8 -2 9 9 5 9 -3 19 -1 23 5 4 7 3 8 -4 4 -7 -4 -12 -2
-12 3 0 10 14 15 32 12 4 0 4 7 1 17 -3 9 -3 14 1 10 5 -4 22 8 39 25 17 18
35 31 39 29 4 -1 8 4 8 12 0 8 9 18 21 21 11 4 18 9 16 12 -8 7 25 43 35 37 4
-3 8 1 8 9 0 7 12 19 26 26 16 7 24 17 20 26 -3 8 -2 14 2 14 20 -3 32 2 30
14 -2 6 3 11 10 9 6 -1 11 4 10 10 -2 7 3 12 10 10 6 -1 12 3 12 9 0 5 4 8 9
5 5 -3 8 2 7 11 0 10 6 18 14 18 8 1 14 6 12 13 -2 11 11 16 31 13 5 -1 6 3 2
9 -4 6 8 26 27 43 18 18 34 39 36 47 2 8 8 20 14 25 8 7 8 6 3 -4 -5 -9 -4
-12 3 -7 7 4 12 14 12 23 0 10 6 13 16 9 11 -4 14 -1 9 13 -3 11 1 24 12 32
14 12 16 12 8 0 -5 -9 -4 -12 3 -7 6 4 8 14 5 24 -3 9 -3 14 1 10 11 -10 43
25 38 41 -3 9 -1 12 6 7 6 -3 13 -2 17 4 3 5 0 10 -7 11 -7 0 -3 5 10 11 13 7
21 17 18 25 -3 7 1 13 9 13 8 0 14 3 13 8 -7 24 41 99 55 86 3 -3 4 6 3 20 -2
14 0 23 4 21 4 -3 16 7 25 21 12 18 13 24 4 19 -8 -3 -5 1 6 10 11 9 20 20 20
26 0 5 7 14 15 19 12 8 12 10 1 10 -8 0 -4 8 10 21 13 11 17 18 9 14 -12 -5
-12 -4 1 7 9 7 14 19 11 27 -3 8 0 11 7 7 7 -5 11 1 11 13 0 12 4 21 10 21 5
0 6 7 3 17 -4 10 -2 14 4 10 6 -4 14 0 17 9 4 10 2 13 -7 9 -6 -4 -5 -1 4 7
16 13 18 17 27 51 2 9 9 17 14 17 5 0 7 4 4 9 -3 4 2 17 10 27 9 10 12 13 8 5
-5 -10 -3 -12 5 -6 9 5 10 10 2 18 -7 7 -5 15 7 24 9 8 11 12 5 8 -19 -9 -16
3 7 27 11 12 20 30 20 40 0 10 6 18 13 18 8 0 7 3 -3 10 -12 8 -12 10 3 16 9
3 15 10 12 14 -3 5 2 16 11 24 11 12 12 16 2 16 -8 0 -9 3 -3 8 15 11 50 76
36 68 -15 -10 -14 0 5 29 9 13 13 29 9 34 -3 6 3 19 15 31 12 12 15 20 8 20
-9 0 -9 3 1 9 8 5 11 16 8 26 -4 9 -3 14 2 11 5 -3 12 1 15 10 9 22 8 26 -5
19 -6 -4 -5 2 3 14 7 12 15 21 18 21 3 0 6 9 7 20 1 13 -3 18 -10 14 -7 -3 -3
2 7 10 11 9 16 16 12 16 -5 0 -2 8 5 17 9 11 10 14 2 9 -9 -5 -11 -2 -7 8 3 9
11 13 18 9 6 -4 5 1 -3 10 -7 9 -9 17 -4 17 6 0 10 10 10 23 1 41 3 48 13 42
14 -9 13 8 -2 23 -9 9 -7 13 6 18 14 5 15 9 4 15 -10 7 -10 9 2 9 13 0 13 1 0
11 -11 8 -12 12 -2 16 6 2 10 9 6 14 -3 5 0 9 5 9 6 0 11 5 11 11 0 5 -6 7
-12 3 -9 -5 -9 -2 1 9 9 11 10 17 2 17 -6 0 -11 4 -11 10 0 5 7 7 15 4 13 -5
14 -2 5 20 -6 18 -6 25 0 21 8 -5 13 15 9 41 0 4 5 11 13 15 7 5 8 9 2 9 -15
0 -11 40 5 49 10 6 9 10 -4 15 -13 5 -15 10 -6 19 8 10 7 17 -2 27 -6 7 -7 10
-1 7 14 -8 37 40 23 49 -6 4 -6 11 2 20 6 8 8 14 3 14 -5 0 -2 5 6 10 13 9 13
10 0 10 -13 0 -13 1 0 10 9 6 11 10 3 10 -7 0 -10 7 -7 15 4 8 11 12 18 8 7
-4 7 -1 -1 9 -7 8 -10 18 -6 21 3 4 0 7 -8 7 -10 1 -8 4 4 11 18 10 18 12 1
31 -12 13 -14 18 -5 16 7 -2 16 3 19 11 3 10 0 11 -9 5 -12 -7 -12 -5 0 9 7 9
11 29 8 43 -3 16 0 27 9 31 8 3 11 10 7 17 -10 15 -13 37 -4 32 9 -6 7 81 -2
90 -4 4 1 13 11 21 9 8 12 12 6 9 -7 -3 -15 1 -18 10 -3 8 -2 12 4 9 6 -3 10
0 10 9 0 8 -6 17 -12 19 -8 3 -5 6 6 6 14 1 16 4 7 14 -6 8 -8 17 -4 21 4 4 1
11 -7 16 -12 8 -12 10 4 10 14 0 16 3 7 13 -6 8 -8 17 -4 21 4 4 1 11 -7 16
-13 8 -12 10 3 10 18 0 23 15 7 25 -5 3 -6 13 -3 22 4 10 2 14 -4 10 -5 -3
-10 0 -10 8 0 8 5 15 10 15 5 0 4 6 -2 14 -9 11 -9 15 1 19 11 4 10 6 0 6 -8
1 -10 6 -6 13 11 17 11 58 1 58 -5 0 -4 7 3 15 10 12 10 15 -1 15 -12 0 -12 2
0 9 11 7 11 9 0 14 -12 5 -12 6 0 6 11 1 11 4 0 18 -12 15 -12 16 1 8 12 -6
13 -5 3 6 -17 17 -17 32 0 23 7 -5 6 -1 -2 10 -8 10 -14 33 -13 52 2 19 -2 34
-8 34 -5 0 -10 5 -10 11 0 5 4 8 9 5 4 -3 6 6 3 19 -2 14 -9 22 -16 19 -6 -3
-2 2 8 10 11 9 14 16 8 16 -7 0 -12 9 -12 21 0 11 4 17 10 14 6 -3 7 1 4 9 -3
9 -11 13 -18 9 -6 -4 -5 1 3 10 11 14 11 17 0 17 -11 0 -11 2 1 10 13 9 13 10
0 10 -13 0 -13 1 0 10 10 6 11 10 3 10 -17 0 -17 27 0 33 7 4 6 6 -4 6 -9 1
-20 8 -23 17 -3 8 -2 12 3 9 5 -3 12 -1 16 5 3 5 -2 10 -12 10 -15 0 -16 2 -3
10 10 6 11 10 3 10 -15 0 -13 21 2 32 6 5 5 8 -3 8 -7 0 -10 5 -7 10 3 6 0 10
-7 10 -9 0 -9 3 2 10 13 9 13 10 0 10 -13 0 -13 1 0 10 8 5 10 10 5 10 -9 0
-15 21 -18 68 0 6 -4 12 -8 12 -4 0 -6 14 -5 30 1 17 -3 30 -8 30 -6 0 -4 5 4
10 11 7 11 10 2 10 -7 0 -10 5 -7 10 3 6 1 10 -6 10 -8 0 -9 4 0 13 8 10 6 19
-10 35 -11 12 -15 22 -9 22 5 0 10 5 10 11 0 5 -5 7 -12 3 -7 -5 -8 -3 -2 7
14 23 13 40 -2 46 -8 3 -14 9 -14 15 0 5 4 7 9 4 4 -3 6 6 3 20 -3 19 -7 22
-14 12 -7 -10 -8 -8 -6 7 1 11 -1 26 -6 34 -6 10 -5 12 2 7 17 -10 15 0 -5 19
-14 14 -14 18 -2 26 10 6 10 9 2 9 -7 0 -13 9 -13 21 0 11 -4 17 -10 14 -6 -4
-7 2 -1 17 10 26 -9 64 -25 50 -4 -4 -2 2 6 12 13 17 13 18 1 11 -11 -6 -13
-4 -8 8 3 10 3 17 -1 17 -5 0 -7 13 -6 30 1 16 -2 28 -6 25 -4 -3 -14 3 -21
12 -10 12 -10 14 -1 9 6 -4 12 -2 12 3 0 6 -5 11 -11 11 -6 0 -8 8 -4 19 3 10
-1 24 -10 31 -8 7 -13 16 -10 20 3 5 1 11 -5 15 -6 4 -8 11 -5 16 4 5 0 9 -7
9 -9 0 -9 3 2 10 8 5 10 10 5 10 -6 0 -16 9 -23 21 -8 12 -9 18 -4 15 18 -11
7 23 -12 37 -9 7 -18 22 -19 35 0 12 -6 22 -11 22 -5 0 -6 3 -3 7 4 3 -1 15
-10 26 -13 15 -14 18 -3 12 11 -6 10 -3 -3 12 -9 11 -14 23 -10 26 3 4 1 7 -5
7 -6 0 -9 7 -6 15 4 8 -1 17 -10 21 -9 3 -13 10 -10 15 3 5 0 9 -6 9 -7 0 -10
7 -6 15 3 8 1 15 -4 15 -6 0 -10 9 -10 21 0 13 -4 18 -12 13 -8 -5 -9 -2 -5
10 6 14 3 17 -8 12 -12 -4 -13 -2 -6 12 10 18 -10 58 -22 45 -4 -3 -7 1 -7 10
0 10 -4 17 -10 17 -5 0 -9 3 -8 8 1 4 -3 17 -10 28 -6 12 -8 25 -4 29 4 5 2 5
-5 1 -12 -6 -43 45 -43 71 0 7 -4 13 -10 13 -5 0 -10 6 -10 14 0 8 -7 17 -16
20 -9 3 -14 12 -11 19 3 8 -8 27 -23 44 -16 17 -26 34 -23 37 4 3 -1 6 -10 6
-10 0 -17 8 -17 18 -1 23 -25 54 -35 44 -5 -4 -5 1 -2 11 4 10 3 16 -2 13 -5
-3 -15 2 -22 11 -10 11 -10 14 -2 9 9 -5 11 -2 7 8 -3 9 -10 13 -15 10 -8 -5
-13 9 -10 29 0 4 -6 7 -15 7 -8 0 -12 5 -9 10 3 6 1 10 -4 10 -6 0 -11 5 -11
11 0 6 7 8 16 5 10 -4 13 -2 8 6 -5 7 -2 9 8 5 9 -3 21 0 28 6 10 9 11 9 6 0
-8 -15 52 -15 61 0 4 6 1 7 -7 2 -9 -5 -11 -4 -6 4 6 8 12 9 20 2 7 -6 15 -8
19 -5 3 3 18 7 33 9 16 1 30 7 32 13 2 6 10 8 19 5 11 -4 14 -2 9 5 -5 8 0 12
13 12 12 0 21 5 21 12 0 6 3 8 7 5 3 -4 12 1 20 11 10 11 12 12 8 2 -4 -10 -2
-9 8 2 8 10 17 15 21 11 4 -4 9 3 13 15 3 12 10 22 15 22 5 0 6 -6 3 -12 -4
-7 3 -2 15 12 12 14 18 19 14 11 -5 -10 -3 -12 5 -7 7 5 10 15 7 23 -3 8 -2
12 3 8 5 -3 16 1 24 9 8 8 16 14 18 13 3 -1 1 2 -3 7 -3 5 3 18 15 30 12 11
29 30 37 40 13 18 13 19 0 11 -8 -4 -6 1 5 12 11 11 24 18 29 15 5 -3 6 0 3 5
-8 13 17 65 27 56 4 -4 4 1 0 11 -5 12 -4 17 3 13 6 -4 8 3 5 18 -2 14 0 25 6
25 5 0 9 26 8 60 -1 35 3 60 9 60 5 0 2 5 -8 11 -15 9 -16 13 -5 27 10 12 10
14 1 8 -12 -6 -18 5 -14 27 0 4 -4 7 -9 7 -6 0 -10 7 -10 15 0 8 -5 15 -11 15
-5 0 -8 4 -5 9 9 14 -26 23 -38 10 -8 -9 -8 -10 0 -6 7 4 15 0 18 -9 3 -8 2
-12 -4 -9 -6 3 -7 -1 -4 -9 3 -9 11 -13 16 -10 6 4 6 -2 -1 -14 -8 -16 -7 -21
5 -26 13 -5 13 -8 -1 -30 -10 -14 -14 -38 -12 -59 3 -23 0 -35 -7 -34 -6 1
-10 -6 -8 -15 2 -10 -2 -18 -8 -18 -6 0 -9 -4 -5 -9 3 -6 -3 -14 -12 -20 -17
-10 -17 -10 2 -11 18 -1 17 -2 -4 -11 -15 -6 -21 -14 -17 -25 3 -8 2 -12 -4
-9 -6 3 -10 1 -10 -5 0 -6 -4 -8 -10 -5 -9 5 -15 -15 -11 -37 0 -5 -2 -7 -7
-7 -22 4 -31 -3 -25 -18 4 -11 3 -14 -5 -9 -7 4 -12 2 -12 -4 0 -6 -4 -9 -9
-6 -5 3 -11 -4 -14 -15 -3 -12 -9 -19 -14 -16 -10 6 -34 -19 -25 -27 3 -4 -1
-4 -11 0 -11 4 -24 -2 -38 -17 -11 -13 -18 -18 -14 -11 8 16 -3 15 -20 -2 -8
-7 -11 -17 -7 -20 3 -4 -2 -4 -12 0 -13 5 -17 4 -12 -4 4 -8 2 -10 -7 -6 -8 3
-18 1 -22 -5 -9 -15 -28 -14 -20 2 4 6 0 4 -8 -5 -16 -21 -32 -24 -21 -5 6 9
5 9 -8 0 -8 -7 -19 -9 -24 -5 -4 4 -2 -2 6 -12 8 -11 11 -17 5 -14 -21 13 -86
18 -79 7 4 -8 1 -8 -12 -1 -11 5 -29 8 -42 6 -13 -2 -21 0 -18 5 4 5 -2 8 -11
6 -10 -1 -31 4 -47 12 -15 8 -25 10 -22 4 4 -6 2 -11 -3 -11 -6 0 -11 7 -11
16 0 9 -5 12 -12 8 -6 -4 -8 -3 -4 4 3 6 0 17 -8 25 -8 8 -12 18 -8 21 3 4 -1
4 -11 0 -10 -3 -17 -1 -17 5 0 20 -38 54 -51 46 -7 -5 -10 -4 -5 3 3 6 2 13
-4 17 -6 4 -7 11 -4 17 4 7 2 8 -4 4 -7 -4 -12 -1 -12 6 0 9 -3 9 -10 -2 -8
-12 -10 -11 -10 8 0 13 -6 22 -16 22 -8 0 -13 3 -11 8 3 4 -1 13 -9 20 -8 7
-14 10 -14 5 0 -4 -6 2 -14 12 -8 11 -12 23 -10 27 3 4 -3 5 -12 1 -13 -5 -15
-3 -9 7 6 10 4 12 -9 7 -14 -6 -17 -3 -12 8 4 10 -2 19 -17 25 -12 5 -18 9
-14 9 4 1 2 7 -5 15 -7 8 -16 12 -20 9 -5 -2 -8 4 -8 14 0 15 -2 16 -10 3 -8
-13 -10 -12 -10 3 0 10 -4 15 -10 12 -5 -3 -10 0 -10 8 0 8 -8 21 -17 28 -17
13 -17 13 -3 -6 14 -19 14 -19 -2 -6 -10 7 -18 20 -18 27 0 8 -11 16 -25 20
-14 3 -22 10 -19 15 3 5 2 9 -3 8 -20 -3 -34 2 -28 11 3 6 -1 10 -9 10 -9 0
-16 7 -16 16 0 8 -4 12 -10 9 -5 -3 -10 -1 -10 5 0 6 -4 8 -10 5 -5 -3 -10 2
-10 12 0 15 -2 16 -10 3 -8 -13 -10 -12 -10 3 0 10 -4 16 -8 13 -5 -3 -16 6
-26 20 -11 13 -25 24 -33 24 -7 0 -16 7 -19 15 -4 8 -12 15 -20 15 -8 0 -14 7
-14 16 0 8 -4 12 -10 9 -5 -3 -10 -1 -10 4 0 6 -7 11 -15 11 -9 0 -18 7 -21
15 -4 8 -10 12 -15 10 -4 -3 -17 3 -28 14 -10 10 -29 22 -41 26 -18 6 -20 9
-9 17 10 7 8 8 -9 5 -12 -3 -20 -1 -16 4 3 5 -1 9 -10 9 -8 0 -16 5 -18 10 -2
6 -13 12 -25 13 -12 0 -19 5 -17 9 9 14 -20 35 -41 30 -18 -5 -18 -4 -6 11 12
16 12 17 -5 11 -10 -4 -16 -4 -12 1 4 4 0 14 -10 22 -16 12 -16 13 1 7 11 -4
17 -1 17 9 0 8 7 20 15 27 9 7 14 19 11 26 -3 8 -2 13 2 13 20 -3 33 2 27 11
-3 6 1 10 11 10 11 0 15 6 11 20 -3 12 -1 17 5 14 11 -7 39 27 32 38 -3 5 0 8
6 8 7 0 9 7 6 16 -5 14 -4 15 9 4 13 -11 14 -10 9 4 -3 9 -1 16 5 16 6 0 8 7
4 17 -4 10 -2 14 4 10 6 -4 16 0 23 8 11 13 10 15 -6 9 -17 -5 -17 -4 1 7 25
15 35 30 29 41 -3 5 2 11 10 14 9 3 13 11 9 17 -4 6 0 8 11 4 10 -4 15 -3 11
4 -4 5 -1 17 7 26 11 14 11 16 -2 9 -9 -4 -8 -2 2 7 10 8 15 17 11 20 -3 4 -1
7 6 7 7 0 9 5 6 10 -3 6 1 13 9 16 9 3 13 10 10 15 -3 5 0 9 5 9 6 0 10 3 9 8
-4 16 26 61 36 55 6 -3 5 0 -1 7 -10 11 -9 18 5 34 13 14 13 18 2 12 -8 -4 -4
2 9 13 13 12 18 21 11 21 -10 0 -10 3 0 15 6 8 9 19 5 25 -3 5 1 10 11 10 13
0 14 3 5 14 -9 10 -8 16 3 25 8 7 12 20 9 28 -5 12 -3 14 7 8 9 -5 11 -4 6 4
-4 6 -1 25 8 41 8 17 10 28 5 25 -5 -4 -9 -2 -9 4 0 5 5 13 11 17 8 4 7 9 -2
15 -11 7 -10 9 4 9 12 0 16 4 11 12 -10 17 -13 48 -3 43 11 -8 18 22 7 33 -6
6 -6 12 3 17 8 6 10 4 4 -5 -5 -9 -4 -11 3 -6 9 5 9 13 2 27 -6 10 -7 19 -2
19 4 0 6 16 4 35 -3 24 0 35 9 35 8 0 5 6 -7 15 -14 11 -15 14 -4 15 9 0 11 3
5 8 -13 9 -15 42 -3 42 6 0 6 6 -1 14 -9 11 -9 15 1 19 7 3 8 6 2 6 -5 1 -9
14 -8 31 1 19 -2 28 -9 23 -6 -4 -8 0 -4 10 4 10 1 17 -6 17 -8 0 -6 4 3 10 9
6 11 10 3 10 -7 0 -10 7 -6 17 5 12 3 14 -8 8 -11 -7 -11 -5 1 10 9 11 10 16
3 11 -12 -6 -18 5 -14 27 0 4 -4 7 -10 7 -5 0 -8 4 -5 9 9 14 -5 42 -17 34 -6
-4 -8 0 -4 10 4 10 1 17 -6 17 -8 0 -7 4 3 10 12 8 12 10 -3 16 -9 3 -14 10
-11 15 3 5 0 9 -7 9 -7 0 -10 3 -6 6 3 4 -1 13 -9 21 -8 8 -12 19 -9 24 4 5
-3 9 -14 9 -15 0 -19 5 -16 20 3 14 0 18 -8 13 -17 -11 -38 -13 -32 -3 3 5 -3
8 -14 7 -11 0 -17 -5 -14 -11 4 -5 -1 -7 -10 -3 -10 3 -17 2 -17 -4 0 -6 -6
-7 -12 -3 -7 4 3 -10 22 -32 22 -24 25 -31 10 -19 -25 20 -25 20 -10 0 8 -11
22 -26 30 -33 8 -8 9 -11 3 -7 -10 4 -12 -9 -11 -52 1 -32 -1 -64 -5 -70 -4
-6 -3 -15 3 -18 8 -5 7 -11 -1 -21 -6 -8 -8 -14 -4 -14 4 0 2 -7 -5 -15 -10
-12 -10 -15 1 -15 11 0 11 -2 -1 -10 -11 -7 -11 -10 -2 -10 10 0 10 -5 2 -21
-7 -11 -9 -27 -6 -35 3 -9 -1 -14 -12 -14 -15 0 -15 -2 -2 -10 13 -9 13 -10 0
-10 -9 0 -11 -3 -5 -8 16 -12 17 -42 2 -48 -9 -3 -13 -13 -9 -26 4 -16 2 -19
-9 -13 -12 7 -12 6 0 -9 9 -10 11 -20 5 -24 -13 -9 -37 -65 -24 -57 6 3 7 -1
4 -9 -3 -9 -9 -14 -14 -11 -4 2 -6 -7 -4 -20 1 -16 -5 -31 -19 -41 -12 -9 -15
-14 -6 -11 9 3 16 -1 16 -8 0 -7 -6 -11 -12 -8 -7 2 -15 -5 -18 -16 -3 -14 -1
-19 6 -14 8 4 8 2 0 -9 -7 -8 -9 -19 -5 -23 4 -5 1 -5 -5 -1 -9 5 -13 0 -13
-14 0 -12 -4 -18 -10 -15 -6 3 -10 -5 -10 -18 0 -14 -7 -27 -15 -31 -8 -3 -12
-12 -9 -21 4 -8 -1 -17 -10 -21 -9 -3 -13 -11 -9 -17 3 -5 -1 -15 -9 -21 -20
-15 -22 -27 -6 -38 9 -6 8 -8 -7 -6 -12 2 -19 -2 -17 -9 1 -7 -3 -13 -9 -13
-6 0 -9 -6 -6 -14 6 -14 -15 -40 -24 -31 -3 2 -11 -6 -18 -18 -13 -20 -13 -21
3 -8 14 12 16 12 10 -2 -3 -9 -15 -19 -25 -22 -17 -6 -18 -9 -7 -23 7 -9 8
-13 3 -10 -6 4 -19 -1 -30 -9 -20 -16 -20 -16 0 -9 17 6 16 4 -5 -16 -13 -13
-29 -22 -34 -20 -5 2 -3 -5 5 -14 8 -10 10 -15 4 -12 -5 3 -22 -8 -37 -23 -15
-16 -24 -29 -21 -29 4 0 -1 -6 -12 -13 -12 -9 -15 -19 -10 -28 8 -12 6 -12 -8
0 -15 12 -17 12 -11 -4 6 -14 4 -16 -6 -10 -10 6 -12 4 -7 -9 4 -10 3 -15 -3
-11 -6 3 -10 1 -10 -5 0 -6 -4 -8 -10 -5 -6 3 -7 -1 -4 -10 4 -10 2 -15 -7
-13 -8 2 -13 -4 -13 -14 1 -10 -2 -15 -7 -12 -5 3 -9 1 -9 -4 0 -4 -13 -8 -30
-8 -16 0 -30 3 -30 8 0 4 -7 4 -17 1 -10 -4 -14 -2 -9 5 8 13 -23 31 -42 25
-8 -3 -20 4 -28 16 -9 12 -26 21 -40 21 -16 0 -23 4 -18 11 4 8 -1 9 -16 4
-15 -5 -20 -3 -16 3 8 13 -5 21 -38 24 -14 1 -26 6 -26 10 0 4 -9 8 -20 8 -15
0 -20 7 -20 26 0 14 4 23 10 19 6 -3 10 1 10 10 0 10 -5 14 -12 10 -7 -4 -5 0
5 8 20 16 23 32 5 21 -9 -5 -9 -3 1 9 7 9 17 14 22 12 4 -3 6 6 3 21 -3 15 -1
23 5 20 6 -4 8 2 6 14 -2 12 2 23 10 26 13 5 15 12 16 62 0 12 3 22 7 22 4 0
9 12 10 26 1 14 9 32 17 40 8 9 15 21 15 27 0 7 -4 6 -10 -3 -7 -10 -10 -11
-10 -2 0 7 7 15 16 19 13 5 13 7 2 14 -10 7 -10 9 0 9 6 0 12 8 12 18 0 10 6
24 13 31 9 11 9 12 0 7 -9 -5 -11 -2 -7 8 3 9 11 16 18 16 6 0 4 5 -4 10 -12
8 -12 10 5 11 19 0 19 1 1 8 -18 7 -18 8 -2 14 9 4 14 11 11 17 -3 5 -2 10 3
10 6 0 8 10 4 22 -4 16 -2 19 9 13 8 -5 11 -5 7 0 -4 4 -3 14 4 22 9 11 7 12
-8 7 -16 -6 -16 -4 4 15 24 24 29 37 10 25 -10 -6 -10 -5 -1 8 7 8 10 18 6 21
-3 4 0 7 8 7 10 1 8 5 -6 17 -17 13 -17 15 -2 10 13 -5 17 -2 15 11 -2 9 2 16
8 15 5 -1 9 12 8 28 -1 16 1 29 5 29 4 0 8 7 8 15 0 8 -5 15 -11 15 -7 0 -7 3
-1 8 6 4 17 16 25 26 12 16 12 18 1 11 -11 -6 -13 -4 -8 9 4 10 7 20 7 22 0 3
4 3 8 0 11 -6 9 25 -3 43 -5 9 -4 12 2 8 6 -4 14 1 18 10 3 10 2 19 -4 21 -7
2 -6 8 2 17 7 7 17 10 22 7 6 -3 4 2 -4 11 -11 14 -11 17 0 17 12 0 12 2 1 9
-11 6 -10 10 4 15 16 6 15 8 -2 28 -11 12 -13 18 -6 14 7 -4 12 -1 12 9 0 9 4
14 9 11 5 -4 7 4 3 16 -3 14 -2 19 6 14 7 -4 12 -3 12 3 0 5 -5 13 -11 17 -8
4 -6 10 6 17 14 8 15 11 4 18 -12 7 -12 9 0 9 11 0 10 4 -5 16 -10 8 -14 13
-8 10 6 -3 18 12 27 34 11 28 12 40 4 40 -9 0 -9 2 -1 8 6 4 10 15 8 25 -1 9
2 17 7 17 6 0 5 9 -2 22 -10 18 -9 20 6 14 15 -5 16 -4 6 8 -9 11 -9 16 0 21
8 6 7 10 -2 16 -11 7 -10 9 4 9 14 0 16 4 8 17 -6 12 -5 26 5 45 9 17 10 29 4
33 -7 4 -5 14 5 27 11 17 12 25 2 37 -10 12 -9 14 7 8 16 -6 17 -5 6 8 -7 8
-17 12 -23 8 -6 -3 -7 -1 -3 6 4 6 12 8 18 5 7 -5 9 -1 5 9 -3 9 -2 19 4 22 5
4 9 12 8 18 -4 31 2 48 14 41 9 -6 9 -4 -1 8 -7 8 -9 24 -5 33 5 14 3 16 -8
11 -8 -4 -6 -1 3 7 14 11 15 16 5 27 -9 10 -9 11 1 6 6 -4 12 -3 12 1 0 5 -6
15 -12 22 -11 11 -10 12 1 6 11 -6 13 -3 9 13 -4 12 -2 22 2 22 4 0 6 10 2 22
-4 15 -2 19 7 13 10 -6 11 -3 2 13 -6 12 -7 23 -3 26 11 6 9 36 -3 55 -5 10
-4 12 3 7 7 -4 12 -3 12 3 0 5 -6 12 -12 14 -9 4 -8 6 2 6 12 1 15 13 14 56
-1 30 1 53 6 50 11 -7 7 29 -5 37 -6 4 -2 8 8 8 9 0 17 5 17 11 0 5 -4 8 -9 5
-5 -3 -12 1 -15 10 -3 8 -2 12 4 9 6 -3 11 -1 11 4 1 6 2 17 3 24 1 6 -3 18
-8 26 -8 10 -8 13 -1 9 7 -4 11 11 11 42 0 30 -4 47 -11 44 -5 -3 -3 0 6 8 10
8 14 24 12 41 -2 16 0 26 5 23 5 -3 7 6 4 19 -2 15 -9 22 -15 18 -6 -4 0 9 13
27 13 18 19 30 12 26 -11 -6 -14 -1 -11 21 0 4 -9 11 -21 15 -14 5 -19 12 -14
20 6 10 4 10 -8 0 -12 -9 -27 -10 -57 -3 -28 6 -39 6 -34 -2z m-6490 -4772 c0
-8 -4 -12 -9 -9 -5 3 -6 10 -3 15 9 13 12 11 12 -6z"/>
<path d="M5895 10160 c3 -5 8 -10 11 -10 2 0 4 5 4 10 0 6 -5 10 -11 10 -5 0
-7 -4 -4 -10z"/>
<path d="M2315 1980 c-3 -5 -1 -10 4 -10 6 0 11 5 11 10 0 6 -2 10 -4 10 -3 0
-8 -4 -11 -10z"/>
</g>
</svg>
